/* XPM */
static char *_13f94c7e93b44698201a9cd92af09e4a92AXOXpsO3MRURL[] = {
/* columns rows colors chars-per-pixel */
"128 128 12 1 ",
"  c None",
". c gray24",
"X c #3E3E3E",
"o c gray35",
"O c #5A5A5A",
"+ c gray36",
"@ c #676767",
"# c #686868",
"$ c DimGray",
"% c #777777",
"& c gray47",
"* c gray59",
/* pixels */
"                                                                                                                                ",
"                                                                                                                                ",
"                                                                                                                                ",
"                                                                                                                                ",
"                                                                                                                                ",
"                                                                                                                                ",
"                                                                                                                                ",
"                                                                                                                                ",
"                                                                                                                                ",
"                                                                                                                                ",
"                                                                                                                                ",
"                                                                                                                                ",
"                                                                                                                                ",
"                                                                                                                                ",
"                                                                                                                                ",
"                                                                                                                                ",
"                                                                                                                                ",
"                                                                                                                                ",
"                                                                                                                                ",
"                                                                                                                                ",
"                                                                                                                                ",
"                                                                                                                                ",
"                                                                                                                                ",
"                                                                                                                                ",
"                                                                                                                                ",
"                                                                                                                                ",
"                                                                                                                                ",
"                                                                                                                                ",
"                                                                                                                                ",
"                                                                                                                                ",
"                                                                                                                                ",
"                                                                                                                                ",
"                                                                                                                                ",
"                                                                                                                                ",
"                                                                                                                                ",
"                                                                                                                                ",
"                                                                                                                                ",
"                                                                                                                                ",
"                                                                                                                                ",
"                                                                                                                                ",
"                                                                                                                                ",
"                                                                                                                                ",
"                                                                                                                                ",
"                                               .....                                                                            ",
"                                               .....                                                                            ",
"                                               .....                                                                            ",
"                                               .....                                                                            ",
"                                               .....                                                                            ",
"                                               .....                                                                            ",
"                                               .....                                                                            ",
"                                               .....                                                                            ",
"                                               ......                                                                           ",
"                                               .......                                                                          ",
"                                               ........                       &........                                         ",
"                                               .........                      .........                                         ",
"                                               .$$$O.....                    ..........                                         ",
"                                               *****&.....                  ...........                                         ",
"                                               ******&o....                .....$$$$$$$                                         ",
"                                               *******&.....              .....&*******                                         ",
"                                                *******&.....            .....&********                                         ",
"                                                    ****%.....          ....o%*********                                         ",
"                                                     ****&.....        .....$**********                                         ",
"                                                      ****&.....      .....%****                                                ",
"                                                       ****&.....    .....%****                                                 ",
"                                                        ****%.....  ....o$****                                                  ",
"                                                         ****$..........%****                                                   ",
"                                                          ****&o.......&****                                                    ",
"                                                           ****&......&****                                                     ",
"                                                            ****$....&****                                                      ",
"                                                             ***$...O****                                                       ",
"                                                              **$...$***                                                        ",
"                                                               *$...$**                                                         ",
"                                                                +...$*                                                          ",
"                                                                ....+                                                           ",
"                                                                .....                                                           ",
"                                                                .....                                                           ",
"                                                                .....                                                           ",
"                                                                .....                                                           ",
"                                                                .....                                                           ",
"                                                                .....                                                           ",
"                                                                .....                                                           ",
"                                                                .....                                                           ",
"                                                                .....                                                           ",
"                                                                .....                                                           ",
"                                                                .....                                                           ",
"                                                                .....                                                           ",
"                                                               ......                                                           ",
"                                                              .....O*                                                           ",
"                                              ....................&**                                                           ",
"                                              ...................&***                                                           ",
"                                              ..................&****                                                           ",
"                                              .................&****                                                            ",
"                                              $$$$$$$$$$$$$$$$&****                                                             ",
"                                              ********************                                                              ",
"                                              *******************                                                               ",
"                                              ******************                                                                ",
"                                              *****************                                                                 ",
"                                                                                                                                ",
"                                                                                                                                ",
"                                                                                                                                ",
"                                                                                                                                ",
"                                                                                                                                ",
"                                                                                                                                ",
"                                                                                                                                ",
"                                                                                                                                ",
"                                                                                                                                ",
"                                                                                                                                ",
"                                                                                                                                ",
"                                                                                                                                ",
"                                                                                                                                ",
"                                                                                                                                ",
"                                                                                                                                ",
"                                                                                                                                ",
"                                                                                                                                ",
"                                                                                                                                ",
"                                                                                                                                ",
"                                                                                                                                ",
"                                                                                                                                ",
"                                                                                                                                ",
"                                                                                                                                ",
"                                                                                                                                ",
"                                                                                                                                ",
"                                                                                                                                ",
"                                                                                                                                ",
"                                                                                                                                ",
"                                                                                                                                ",
"                                                                                                                                ",
"                                                                                                                                "
};
