/* XPM */
static char *result[] = {
/* columns rows colors chars-per-pixel */
"128 128 24 1 ",
"  c gray24",
". c #3E3E3E",
"X c gray25",
"o c gray27",
"O c gray28",
"+ c #484848",
"@ c #565656",
"# c gray35",
"$ c #5A5A5A",
"% c gray36",
"& c #5D5D5D",
"* c gray38",
"= c #626262",
"- c #646464",
"; c #676767",
": c #686868",
"> c DimGray",
", c #717171",
"< c #777777",
"1 c gray47",
"2 c #797979",
"3 c gray58",
"4 c gray59",
"5 c None",
/* pixels */
"55555555555555555555555555555555555555555555555555555555555555555555555555555555555555555555555555555555555555555555555555555555",
"55555555555555555555555555555555555555555555555555555555555555555555555555555555555555555555555555555555555555555555555555555555",
"55555555555555555555555555555555555555555555555555555555555555555555555555555555555555555555555555555555555555555555555555555555",
"55555555555555555555555555555555555555555555555555555555555555555555555555555555555555555555555555555555555555555555555555555555",
"55555555555555555555555555555555555555555555555555555555555555555555555555555555555555555555555555555555555555555555555555555555",
"55555555555555555555555555555555555555555555555555555555555555555555555555555555555555555555555555555555555555555555555555555555",
"55555555555555555555555555555555555555555555555555555555555555555555555555555555555555555555555555555555555555555555555555555555",
"55555555555555555555555555555555555555555555555555555555555555555555555555555555555555555555555555555555555555555555555555555555",
"55555555555555555555555555555555555555555555555555555555555555555555555555555555555555555555555555555555555555555555555555555555",
"55555555555555555555555555555555555555555555555555555555555555555555555555555555555555555555555555555555555555555555555555555555",
"55555555555555555555555555555555555555555555555555555555555555555555555555555555555555555555555555555555555555555555555555555555",
"55555555555555555555555555555555555555555555555555555555555555555555555555555555555555555555555555555555555555555555555555555555",
"55555555555555555555555555555555555555555555555555555555555555555555555555555555555555555555555555555555555555555555555555555555",
"55555555555555555555555555555555555555555555555555555555555555555555555555555555555555555555555555555555555555555555555555555555",
"55555555555555555555555555555555555555555555555555555555555555555555555555555555555555555555555555555555555555555555555555555555",
"55555555555555555555555555555555555555555555555555555555555555555555555555555555555555555555555555555555555555555555555555555555",
"55555555555555555555555555555555555555555555555555555555555555555555555555555555555555555555555555555555555555555555555555555555",
"55555555555555555555555555555555555555555555555555555555555555555555555555555555555555555555555555555555555555555555555555555555",
"55555555555555555555555555555555555555555555555555555555555555555555555555555555555555555555555555555555555555555555555555555555",
"55555555555555555555555555555555555555555555555555555 5555555555         5555555555555555555555555555555555555555555555555555555",
"5555555555555555555555555555555555555555555555555555   55555555          5555555555555555555555555555555555555555555555555555555",
"555555555555555555555555555555555555555555555555555.    555555           5555555555555555555555555555555555555555555555555555555",
"5555555555555555555555555555555555555555555555555541.    5555            5555555555555555555555555555555555555555555555555555555",
"55555555555555555555555555555555555555555555555554441.    55    .$>>>>>>>5555555555555555555555555555555555555555555555555555555",
"555555555555555555555555555555555555555555555555544441.        .1444444445555555555555555555555555555555555555555555555555555555",
"5555555555555555555555555555555555555555555555555544441.      .14444444445555555555555555555555555555555555555555555555555555555",
"55555555555555555555555555555555555555555555555555544441.    .144444444445555555555555555555555555555555555555555555555555555555",
"55555555555555555555555555555555555555555555555555554441.    1444444444445555555555555555555555555555555555555555555555555555555",
"5555555555555555555555555555555555555555555555555555541.    ,4444555555555555555555555555555555555555555555555555555555555555555",
"555555555555555555555555555555555555555555555555555555.   .144445555555555555555555555555555555555555555555555555555555555555555",
"55555555555555555555555555555555555555555555555555555    .1444455555555555555555555555555555555555555555555555555555555555555555",
"5555555555555555555555555555555555555555555555555555    .14444555555555555555555555555555555555555555555555555555555555555555555",
"555555555555555555555555555555555555555555555555555    .144445555555555555555555555555555555555555555555555555555555555555555555",
"55555555555555555555555555555555555555555555555555    .1444455555555555555555555555555555555555555555555555555555555555555555555",
"5555555555555555555555555555555555555555555555555    .14444555555555555555555555555555555555555555555555555555555555555555555555",
"555555555555555555555555555555555555555555555555    .14444555555555555555555555555555555555555555555555555          555555555555",
"55555555555555555555555555555555555555555555555    .14444555555555555555555555555555555555555555555555555           555555555555",
"55555555555555555555555555555555555555555555555    $4444555555555555555555555555555555555555555555555555            555555555555",
"55555555555555555555555555555555555555555555555    >444555555555555555555555555555555555555555555555555             555555555555",
"55555555555555555555555555555555555555555555555    >44555555555555555555555555555555555555555555555555    .$>>>>>>>>555555555555",
"5555555555555555555555555555555     55555555555    >4555555555555555555555555555555555555555555555555    .1444444444555555555555",
"5555555555555555555555555555555     55555555555    ;555555555555555555555555555555555555555555555555    .14444444444555555555555",
"5555555555555555555555555555555     55555555555    X55555555555555555555555555555555555555555555555    .144444444444555555555555",
"5555555555555555555555555555555     55555555555     5555555555555555555555555555555555555555555555    .1444444444444555555555555",
"5555555555555555555555555555555     55555555555     5555555555555555555441.    555555555555555555    .14444555555555555555555555",
"5555555555555555555555555555555     55555555555     55555555555555555554441.    5555555555555555    .144445555555555555555555555",
"5555555555555555555555555555555     55555555555     555555555555555555554441.    55555555555555    .1444455555555555555555555555",
"5555555555555555555555555555555     55555555555     5555555555555555555544441.    555555555555    .14444555555555555555555555555",
"5555555555555555555555555555555     55555555555     55555555555555555555544441.    5555555555    .144445555555555555555555555555",
"5555555555555555555555555555555     55555555555     555555555555555555555544441.    55555555    .1444455555555555555555555555555",
"5555555555555555555555555555555     55555555555     5555555555555555555555544441.    555555    .14444555555555555555555555555555",
"5555555555555555555555555555555                      5555555555555555555555544441.    5555    .144445555555555555555555555555555",
"5555555555555555555555555555555                       5555555555555555555555544441.    55    .1444455555555555555555555555555555",
"5555555555555555555555555555555                        55555555555555555555555<---$         .14444555555555555555555555555555555",
"555555555555555555555555555555                          5555555555555555555555             .144445555555555555555555555555555555",
"55555555555555555555555555555     $>>>>>>>>>>>>>>>>$.    55555555555555555555              ;444455555555555555555555555555555555",
"5555555555555555555555555555    .14444444444444444441.    555555555555555555              ;4444555555555555555555555555555555555",
"555555555555555555555555555    .1444444444444444444441.    5555555555555555    .;>>>>>>;;;44445555555555555555555555555555555555",
"55555555555555555555555555    .144444444444444444444441.    55555555555555    .1444444444444455555555555555555555555555555555555",
"5555555555555555555555555    .14444444444444444444444441.    555555555555    .14444444444444555555555555555555555555555555555555",
"555555555555555555555555    .1444455555555555555555544441.    5555555555    .144444444444445555555555555555555555555555555555555",
"55555555555555555555555    .144445555555555555555555544441.    55555555    .1444444444444455555555555555555555555555555555555555",
"5555555555555555555555    .14444555555555555555555555544441.    555555    .14444555555555555555555555555555555555555555555555555",
"5555555555555555555      .1444455555555555555555555555544441.    5555    .144445555555555555555555555555555555555555555555555555",
"5555555555555555555     .144445555555555555555555555555544441.    55    .1444455555555555555555555555555555555555555555555555555",
"5555555555555555555    .14444555555555555555555555555555544441.        .14444555555555555555555555555555555555555555555555555555",
"5555555555555555555    ;444455555555555555555555555555555544441.      .144445555555555555555555555555555555555555555555555555555",
"5555555555555555555$   >4445555555555555555555555555555555544441.    .1444455555555555555555555555555555555555555555555555555555",
"5555555555555555555>   >4455555555555555555555555555555555554444:    14444555555555555555555555555555555555555555555555555555555",
"5555555555555555555>   >4555555555555555555555555555555555555444>   #44445555555555555555555555555555555555555555555555555555555",
"5555555555555555555>   %5555555555555555555555555555555555555544>   >44455555555555555555555555555555555555555555555555555555555",
"5555555555555555555     5555555555555555555555555555555555555554>   >44555555555555555555555555555555555555555555555555555555555",
"5555555555555555555     5555555555555555555555555555555555555555%   >45555555555555555555555555555555555555555555555555555555555",
"5555555555555555555     5555555555555555555555555555555555555555    %55555555555555555555555555555555555555555555555555555555555",
"5555555555555555555     5555555555555555555555555555555555555555     55555555555555555555555555555555555555555555555555555555555",
"5555555555555555555     5555555555555555555555555555555555555555     55555555555555555555555555555555555555555555555555555555555",
"5555555555555555555    .5555555555555555555555555555555555555555     55555555555555555555555555555555555555555555555555555555555",
"5555555555555555555+   O5555555555555555555555555555555555555555     55555555555555555555555555555555555555555555555555555555555",
"5555555555555555555@   #5555555555555555555555555555555555555555     55555555555555555555555555555555555555555555555555555555555",
"55555555555555555552   15555555555555555555555555555555555555555     55555555555555555555555555555555555555555555555555555555555",
"55555555555555555554=o*35555555555555555555555555555555555555555     55555555555555555555555555555555555555555555555555555555555",
"5555555555555555555444445555555555555555555555555555555555555555     55555555555555555555555555555555555555555555555555555555555",
"5555555555555555555444445555555555555555555555555555555555555555     55555555555555555555555555555555555555555555555555555555555",
"5555555555555555555544445555555555555555555555555555555555555555     55555555555555555555555555555555555555555555555555555555555",
"5555555555555555555544455555555555555555555555555555555555555555     55555555555555555555555555555555555555555555555555555555555",
"5555555555555555555555555555555555555555     5555555555555555555     55555555555555555555555555555555555555555555555555555555555",
"5555555555555555555555555555555555555555     555555555555555555      55555555555555555555555555555555555555555555555555555555555",
"5555555555555555555555555555555555555555     55555555555555555    .$555555555555555555555555555555555555555555555555555555555555",
"5555555555555555555555555555555555555555                         .14555555555555555555555555555555555555555555555555555555555555",
"5555555555555555555555555555555555555555                        .144555555555555555555555555555555555555555555555555555555555555",
"5555555555555555555555555555555555555555                        .144555555555555555555555555555555555555555555555555555555555555",
"5555555555555555555555555555555555555555                         .14555555555555555555555555555555555555555555555555555555555555",
"555555555555555555555555555555555555555     &>>>>>>>>>>>>>>>>$.   .5555555555555555555555555555555555555555555555555555555555555",
"55555555555555555555555555555555555555    .14444444444444444441.    555555555555555555555555555555555555555555555555555555555555",
"5555555555555555555555555555555555555    .1444444444444444444441.    55555555555555555555555555555555555555555555555555555555555",
"555555555555555555555555555555555555    .144444444444444444444441.    5555555555555555555555555555555555555555555555555555555555",
"55555555555555555555555555555555555    .14444444444444444444444441.    555555555555555555555555555555555555555555555555555555555",
"55555555555555555555555555555555555   .1444455555555555555555544441.    55555555555555555555555555555555555555555555555555555555",
"555555555555555555555555555555555554 .144445555555555555555555544441.    5555555555555555555555555555555555555555555555555555555",
"555555555555555555555555555555555554444444555555555555555555555544441.    555555555555555555555555555555555555555555555555555555",
"5555555555555555555555555555555555544444455555555555555555555555544441.    55555555555555555555555555555555555555555555555555555",
"55555555555555555555555555555555555444445555555555555555555555555544441.    5555555555555555555555555555555555555555555555555555",
"555555555555555555555555555555555555444555555555555555555555555555544441.    555555555555555555555555555555555555555555555555555",
"5555555555555555555555555555555555555555555555555555555555555555555544441.    55555555555555555555555555555555555555555555555555",
"55555555555555555555555555555555555555555555555555555555555555555555544441.    5555555555555555555555555555555555555555555555555",
"555555555555555555555555555555555555555555555555555555555555555555555544441.  15555555555555555555555555555555555555555555555555",
"5555555555555555555555555555555555555555555555555555555555555555555555544441.145555555555555555555555555555555555555555555555555",
"55555555555555555555555555555555555555555555555555555555555555555555555544441445555555555555555555555555555555555555555555555555",
"55555555555555555555555555555555555555555555555555555555555555555555555554444445555555555555555555555555555555555555555555555555",
"55555555555555555555555555555555555555555555555555555555555555555555555555444445555555555555555555555555555555555555555555555555",
"55555555555555555555555555555555555555555555555555555555555555555555555555544455555555555555555555555555555555555555555555555555",
"55555555555555555555555555555555555555555555555555555555555555555555555555554555555555555555555555555555555555555555555555555555",
"55555555555555555555555555555555555555555555555555555555555555555555555555555555555555555555555555555555555555555555555555555555",
"55555555555555555555555555555555555555555555555555555555555555555555555555555555555555555555555555555555555555555555555555555555",
"55555555555555555555555555555555555555555555555555555555555555555555555555555555555555555555555555555555555555555555555555555555",
"55555555555555555555555555555555555555555555555555555555555555555555555555555555555555555555555555555555555555555555555555555555",
"55555555555555555555555555555555555555555555555555555555555555555555555555555555555555555555555555555555555555555555555555555555",
"55555555555555555555555555555555555555555555555555555555555555555555555555555555555555555555555555555555555555555555555555555555",
"55555555555555555555555555555555555555555555555555555555555555555555555555555555555555555555555555555555555555555555555555555555",
"55555555555555555555555555555555555555555555555555555555555555555555555555555555555555555555555555555555555555555555555555555555",
"55555555555555555555555555555555555555555555555555555555555555555555555555555555555555555555555555555555555555555555555555555555",
"55555555555555555555555555555555555555555555555555555555555555555555555555555555555555555555555555555555555555555555555555555555",
"55555555555555555555555555555555555555555555555555555555555555555555555555555555555555555555555555555555555555555555555555555555",
"55555555555555555555555555555555555555555555555555555555555555555555555555555555555555555555555555555555555555555555555555555555",
"55555555555555555555555555555555555555555555555555555555555555555555555555555555555555555555555555555555555555555555555555555555",
"55555555555555555555555555555555555555555555555555555555555555555555555555555555555555555555555555555555555555555555555555555555",
"55555555555555555555555555555555555555555555555555555555555555555555555555555555555555555555555555555555555555555555555555555555",
"55555555555555555555555555555555555555555555555555555555555555555555555555555555555555555555555555555555555555555555555555555555"
};
