/* XPM */
static char *result[] = {
/* columns rows colors chars-per-pixel */
"128 128 66 1 ",
"  c gray24",
". c #3E3E3E",
"X c #3F3F3F",
"o c gray25",
"O c #414141",
"+ c gray26",
"@ c #434343",
"# c #444444",
"$ c gray27",
"% c #464646",
"& c gray28",
"* c #484848",
"= c gray29",
"- c #4B4B4B",
"; c #4C4C4C",
": c gray30",
"> c gray31",
", c #505050",
"< c #515151",
"1 c gray32",
"2 c #535353",
"3 c #565656",
"4 c gray34",
"5 c #585858",
"6 c gray35",
"7 c #5A5A5A",
"8 c #5B5B5B",
"9 c gray36",
"0 c #5D5D5D",
"q c #606060",
"w c gray38",
"e c #626262",
"r c gray39",
"t c #646464",
"y c #656565",
"u c gray40",
"i c #676767",
"p c #686868",
"a c DimGray",
"s c #6D6D6D",
"d c gray44",
"f c #717171",
"g c gray45",
"h c gray46",
"j c #767676",
"k c #777777",
"l c gray47",
"z c #797979",
"x c #7B7B7B",
"c c #7C7C7C",
"v c #7E7E7E",
"b c gray50",
"n c #808080",
"m c #818181",
"M c #838383",
"N c gray52",
"B c gray53",
"V c #898989",
"C c gray54",
"Z c #8B8B8B",
"A c #909090",
"S c gray57",
"D c #939393",
"F c gray58",
"G c gray59",
"H c None",
/* pixels */
"HHHHHHHHHHGGGGl.    HHHHHHHHHHHHHHHHHHHHHHHHHHH     HHHHHHHHHHHHHHHHHHHHHHHHHHH     HHHHHHHHHHHHH     HHHHHHHHHHHHHHHHHHHHHHHHHH",
"HHHHHHHHHHHGGGGl.    HHHHHHHHHHHHHHHHHHHHHHHHHH     HHHHHHHHHHHHHHHHHHHHHHHHHHH     HHHHHHHHHHHHH     HHHHHHHHHHHHHHHHHHHHHHHHHH",
"HHHHHHHHHHHHGGGGl.    HHHHHHHHHHHHHHHHHHHHHHHHH     HHHHHHHHHHHHHHHHHHHHHHHHHHH     HHHHHHHHHHHHH     HHHHHHHHHHHHHHHHHHHHHHHHHH",
"HHHHHHHHHHHHHGGGGl.    HHHHHHHHHHHHHHHHHHHHHHHH     HHHHHHHHHHHHHHHHHHHHHHHHHHH     HHHHHHHHHHHHH     HHHHHHHHHHHHHHHHHHHHHHHHHH",
"HHHHHHHHHHHHHHGGGGl.    HHHHHHHHHHHHHHHHHHHHHHH        HHHHHHHHHHHHHHHHHHHHHHHH     HHHHHHHHHHHHH     HHHHHHHHHHHHHHHHHHHHHHHHHH",
"HHHHHHHHHHHHHHHGGGGl.    HHHHHHHHHHHHHHHHHHHHHH          HHHHHHHHHHHHHHHHHHHHHH     HHHHHHHHHHHHH     HHHHHHHHHHHHHHHHHHHHHHHHHH",
"HHHHHHHHHHHHHHHHGGGGl.    HHHHHHHHHHHHHHHHHHHHH         +HHHHHHHHHHHHHHHHHHHHHH     HHHHHHHHHHHHH     HHHHHHHHHHHHHHHHHHHHHHHHHH",
"HHHHHHHHHHHHHHHHHGGGGl.    HHHHHHHHHHHHHHHHHHH          qHHHHHHHHHHHHHHHHHHHHHH     HHHHHHHHHHHHH     HHHHHHHHHHHHHHHHHHHHHHHHHH",
"HHHHHHHHHHHHHHHHHHGGGGl.    HHHHHHHHHHHHHHHHH     =paaaxFHHHHHHHHHHHHHHHHHHHHHH     HHHHHHHHHHHHH     HHHHHHHHHHHHHHHHHHHHHHHHHH",
"HHHHHHHHHHHHHHHHHHHGGGGl.    HHHHHHHHHHHHHHH    .lGGGGGGGHHHHHHHHHHHHHHHHHHHHHH     HHHHHHHHHHHHH#    HHHHHHHHHHHHHHHHHHHHHHHHHH",
"HHHHHHHHHHHHHHHHHHHHGGGGl.    HHHHHHHHHHHHH    .lGGGGGGGGHHHHHHHHHHHHHHHHHHHHHH     HHHHHHHHHHHHH6    HHHHHHHHHHHHHHHHHHHHHHHHHH",
"HHHHHHHHHHHHHHHHHHHHHGGGGl.                   .lGGGGGGGGGHHHHHHHHHHHHHHHHHHHHHH         HHHHHHHHHb     HHHHHHHHHHHHHHHHHHHHHHHHH",
"HHHHHHHHHHHHHHHHHHHHHHGGGGl.                  .lGGGGGGGGHHHHHHHHHHHHHHHHHHHHHHH           HHHHHHHGl.    HHHHHHHHHHHHHHHHHHHHHHHH",
"HHHHHHHHHHHHHHHHHHHHHHHGGGGl.                  .lGHHHHHHHHHHHHHHHHHHHHHHHHHHHHH          +HHHHHHHGGl.    HHHHHHHHHHHHHHHHHHHHHHH",
"HHHHHHHHHHHHHHHHHHHHHHHHGGGGl                   .HHHHHHHHHHHHHHHHHHHHHHHHHHHHHH          qHHHHHHHGGGl.    HHHHHHHHHHHHHHHHHHHHHH",
"HHHHHHHHHHHHHHHHHHHHHHHHHGGGGvaaaaaaaaaaaaaau.    HHHHHHHHHHHHHHHHHHHHHHHHHHHH     0aaaaxFHHHHHHHHGGGl.    HHHHHHHHHHHHHHHHHHHHH",
"HHHHHHHHHHHHHHHHHHHHHHHHHHGGGGGGGGGGGGGGGGGGGl.    HHHHHHHHHHHHHHHHHHHHHHHHHH    .lGGGGGGGHHHHHHHHGGGGl.    HHHHHHHHHHHHHHHHHHHH",
"HHHHHH HHHHHHHHHHHHHHHHHHHHGGGGGGGGGGGGGGGGGGGl.    HHHHHHHHHHHHHHHHHHHHHHHH    .lGGGGGGGGHHHHHHHHHGGGGl.    HHHHHHHHHHHHHHHHHHH",
"HHHH.    HHHHHHHHHHHHHHHHHHHGGGGGGGGGGGGGGGGGGGl.    HHHHHHHHHHHHHHHHHHHHHH    .lGGGGGGGGGHHHHHHHHHHGGGGp    HHHHHHHHHHHHHHHHHHH",
"HHHH-       HHHHHHHHHHHHHHHHHHGGGGGGGGGGGGGGGGGGl.    HHHHHHHHHH              .lGGGGGGGGGHHHHHHHHHHHHGGGa    HHHHHHHHHHHHHHHHHHH",
"HHHHj.        HHHHHHHHHHHHHHHHHHHHHHHHHHHHHHHGGGGl.    HHHHHHHH              .lGGGGHHHHHHHHHHHHHHHHHHHGGa    HHHHHHHHHHHHHHHHHHH",
"HHHHGb4        HHHHHHHHHHHHHHHHHHHHHHHHHHHHHHHGGGGl.    HHHHHH              .lGGGGHHHHHHHHHHHHHHHHHHHHHGa    HHHHHHHHHHHHHHHHHHH",
"HHHHGGGVt+      HHHHHHHHHHHHHHHHHHHHHHHHHHHHHHHGGGGl.    HHHH              .vGGGGHHHHHHHHHHHHHHHHHHHHHHH9    HHHHHHHHHHHHHHHHHHH",
"HHHHGGGGGSd=     HHHHHHHHHHHHHHHHHHHHHHHHHHHHHHHGGGGl.    HH    .7aaaaaaaaavGGGGHHHHHHHHHHHHHHHHHHHHHHHH     HHHHHHHHHHHHHHHHHHH",
"HHHHGGGGGGGGf    HHHHHHHHHHHHHHHHHHHHHHHHHHHHHHHHGGGGl.        .lGGGGGGGGGGGGGGHHHHHHHHHHHHHHHHHHHHHHHHH     HHHHHHHHHHHHHHHHHHH",
"HHHHHHGGGGGGG8    HHHHHHHHHHHHHHHHHHHHHHHHHHHHHHHHGGGGl.      .lGGGGGGGGGGGGGGHHHHHHHHHHHHHHHHHHHHHHHHHH     HHHHHHHHHHHHHHHHHHH",
"HHHHHHHHGGGGGCX    HHHHHHHHHHHHHHHHHHHHHHHHHHHHHHHHGGGGl.    .lGGGGGGGGGGGGGHHHHHHHHHHHHHHHHHHHHHHHHHHHH     HHHHHHHHHHHHHHHHHHH",
"HHHHHHHHHHGGGGp    HHHHHHHHHHHHHHHHHHHHHHHHHHHHHHHHHGGGl.    lGGGGGGGGGGGGGHHHHHHHHHHHHHHHHHHHHHHHHHHHHH     HHHHHHHHHHHHHHHHHHH",
"HHHHHHHHHHHHGGD%    HHHHHHHHHHHHHHHHHHHHHHHHHHHHHHHHHGl.    fGGGGHHHHHHHHHHHHHHHHHHHHHHHHHHHHHHHHHHHHHHH     HHHHHHHHHHHHHHHHHHH",
"HHHHHHHHHHHHHGGh                  HHHHHHHHHHHHHHHHHHHH.   .lGGGGHHHHHHHHHHHHHHHHHHHHHHHHHHHHHHHHHHHHHHHH     HHHHHHHHHHHHHHHHHHH",
"HHHHHHHHHHHHHHGG<                  HHHHHHHHHHHHHHHHHH    .lGGGGHHHHHHHHHHHHHHHHHHHHHHHHHHHHHHHHHHHHHHHHH     HHHHHHHHHHHHHHHHHHH",
"HHHHHHHHHHHHHHGm=                   HHHHHHHHHHHHHHHH    .lGGGGHHHHHHHHHHHHHHHHHHHHHHHHHHHHHHHHHHHHHHHHHH     HHHHHHHHHHHHHHHHHHH",
"HHHHHHHHHHHHHHo                     HHHHHHHHHHHHHHH    .lGGGGHHHHHHHHHHHHHHHHHHHHHHHHHHHHHHHHHHHHHHHHHHH     HHHHHHHHHHHHHHHHHHH",
"HHHHHHHHHHHHH      .5aaaaaaaaaa1    HHHHHHHHHHHHHH    .lGGGGHHHHHHHHHHHHHHHHHHHHHHHHHHHHHHHHHHHHHHHHHHHH     HHHHHHHHHHHHHHHHHHH",
"HHHHHHHHHHH       8CGGGGGGGGGGGa    HHHHHHHHHHHHH    .lGGGGHHHHHHHHHHHHHHHHHHHHHHHHHHHHHHHHHHHHHHHHHHHHH     HHHHHHHHHHHHHHHHHHH",
"                :bGGGGGGGGGGGGGa    HHHHHHHHHHHH    .lGGGGHHHHHHHHHHHHHHHHHHH           HHHHHHHHHHHHHHHH                HHHHHHHH",
"              @gFGGGGGGGGGGGGGGa    HHHHHHHHHHH    .lGGGGHHHHHHHHHHHHHHHHHHH              HHHHHHHHHHHHHH                 HHHHHHH",
"            .yAGGGGGGGGGGGGGGGGr    HHHHHHHHHHH    7GGGGHHHHHHHHHHHHHHHHHHH              OHHHHHHHHHHHHHH                  HHHHHH",
"           3VGGGGGGHHHHHHHHHHHH     HHHHHHHHHHH    aGGGHHHHHHHHHHHHHHHHHHH               qHHHHHHHHHHHHH                    HHHHH",
"raaaaaaaaaxGGGGGGHHHHHHHHHHHHHH     HHHHHHHHHHH    aGGHHHHHHHHHHHHHHHHHH     .7aaaaaaaaaxFHHHHHHHHHHHH    .7aaaaaaaaaa7.    HHHH",
"GGGGGGGGGGGGGGGGHHHHHHHHHHHHHHH     HHHHHHHHHHH    aGHHHHHHHHHHHHHHHHHH+    .lGGGGGGGGGGGGHHHHHHHHHHH    .lGGGGGGGGGGGGl.    HHH",
"GGGGGGGGGGGGGGHHHHHHHHHHHHHHHHH     HHHHHHHHHHH    iHHHHHHHHHHHHHHHHHHH,    yGGGGGGGGGGGGGHHHHHHHHHH    .lGGGGGGGGGGGGGG7    HHH",
"GGGGGGGGGGGGHHHHHHHHHHHHHHHHHHH     HHHHHHHHHHH    oHHHHHHHHHHHHHHHHHHHv.   .lGGGGGGGGGGGGHHHHHHHHH    .lGGGGGGGGGGGGGGGa    HHH",
"GGGGGGGGGGGHHHHHHHHHHHHHHHHHHHH     HHHHHHHHHHH     HHHHHHHHHHHHHHHHHHHGl.   .jGGGGGGGGGGHHHHHHHHH    .lGGGGGGGGGGGGGGGGa   oHHH",
"HHHHHHHHHHHHHHHHHHHHHHHHHHHHHHH     HHHHHHHHHHH     HHHHHHHHHHHHHHHHHHHGGl.    HHHHHHHHHHHHHHHHHH    .lGGGGHHHHHHHHHHHHGa   1HHH",
"HHHHHHHHHHHHHHHHHHHHHHHHHHHHHHH     HHHHHHHHHHH     HHHHHHHHHHHHHHHHHHHGGGl.    HHHHHHHHHHHHHHHH    .lGGGGHHHHHHHHHHHHHHa   8HHH",
"HHHHHHHHHHHHHHHHHHHHHHHHHHHHHHH     HHHHHHHHHHH     HHHHHHHHHHHHHHHHHHHHGGGl.    HHHHHHHHHHHHHH    .lGGGGHHHHHHHHHHHHHHHc   kHHH",
"HHHHHHHHHHHHHHHHHHHHHHHHHHHHHHH     HHHHHHHHHHH     HHHHHHHHHHHHHHHHHHHHGGGGl.    HHHHHHHHHHHH    .lGGGGHHHHHHHHHHHHHHHHGe$wFHHH",
"HHHHHHHHHHHHHHHHHHHHHHHHHHHHHHH     HHHHHHHHHHH     HHHHHHHHHHHHHHHHHHHHHGGGGl.    HHHHHHHHHH    .lGGGGHHHHHHHHHHHHHHHHHGGGGGHHH",
"HHHHHHHHHHHHHHHHHHHHHHHHHHHHHHH     HHHHHHHHHHH     HHHHHHHHHHHHHHHHHHHHHHGGGGl.    HHHHHHHH    .lGGGGHHHHHHHHHHHHHHHHHHGGGGGHHH",
"HHHHHHHHHHHHHHHHHHHHHHHHHHHHHHH     HHHHHHHHHHH     HHHHHHHHHHHHHHHHHHHHHHHGGGGl.    HHHHHH    .lGGGGHHHHHHHHHHHHHHHHHHHHGGGGHHH",
"HHHHHHHHHHHHHHHHHHHHHHHHHHHHHHH                      HHHHHHHHHHHHHHHHHHHHHHHGGGGl.    HHHH    .lGGGGHHHHHHHHHHHHHHHHHHHHHGGGHHHH",
"HHHHHHHHHHHHHHHHHHHHHHHHHHHHHHH                       HHHHHHHHHHHHHHHHHHHHHHHGGGGl.    HH    .lGGGGHHHHHHHHHHHHHHHHHHHHHHHHHHHHH",
"HHHHHHHHHHHHHHHHHHHHHHHHHHHHHHH                        HHHHHHHHHHHHHHHHHHHHHHHkttt7         .lGGGGHHHHHHHHHHHHHHHHHHHHHHHHHHHHHH",
"HHHHHHHHHHHHHHHHHHHHHHHHHHHHHH                          HHHHHHHHHHHHHHHHHHHHHH             .lGGGGHHHHHHHHHHHHHHHHHHHHHHHHHHHHHHH",
"HHHHHHHHHHHHHHHHHHHHHHHHHHHHH     7aaaaaaaaaaaaaaaa7.    HHHHHHHHHHHHHHHHHHHH              iGGGGHHHHHHHHHHHHHHHHHHHHHHHHHHHHHHHH",
"HHHHHHHHHHHHHHHHHHHHHHHHHHHH    .lGGGGGGGGGGGGGGGGGGl.    HHHHHHHHHHHHHHHHHH               aGGGHHHHHHHHHHHHHHHHHHHHHHHHHHHHHHHHH",
"HHHHHHHHHHHHHHHHHHHHHHHHHHH    .lGGGGGGGGGGGGGGGGGGGGl.    HHHHHHHHHHHHHHHH    .iaaaaaa1   aGGHHHHHHHHHHHHHHHHHHHHHHHHHHHHHHHHHH",
"HHHHHHHHHHHHHHHHHHHHHHHHHH    .lGGGGGGGGGGGGGGGGGGGGGGl.    HHHHHHHHHHHHHH    .lGGGGGGGa   aGHHHHHHHHHHHHHHHHHHHHHHHHHHHHHHHHHHH",
"HHHHHHHHHHHHHHHHHHHHHHHHH    .lGGGGGGGGGGGGGGGGGGGGGGGGl.    HHHHHHHHHHHH    .lGGGGGGGGa   9HHHHHHHHHHHHHHHHHHHHHHHHHHHHHHHHHHHH",
"                HHHHHHHH    .lGGGGHHHHHHHHHHHHHHHHHHGGGGl.    HHHHHHHHHH    .lGGGGGGGGGa    HHHHHHHHHHHHHHHHHHHHHHHHHHHHHHHHHHHH",
"                  HHHHH    .lGGGGHHHHHHHHHHHHHHHHHHHHGGGGl.    HHHHHHHH    .lGGGGGGGGGGa    HHHHHHHHHHHHHHHHHHHHHHHHHHHHHHHHHHHH",
"                   HHH    .lGGGGHHHHHHHHHHHHHHHHHHHHHHGGGGl.    HHHHHH    .lGGGGHHHHHHHp    HHHHHHHHHHHHHHHHHHHHHHHHHHHHHHHHHHHH",
"                         .lGGGGHHHHHHHHHHHHHHHHHHHHHHHHGGGGl.    HHHH    .lGGGGHHHHHHHHp    HHHHHHHHHHHHHHHHHHHHHHHHHHHHHHHHHHHH",
"raaaaaaaaaaaaa5+        .lGGGGHHHHHHHHHHHHHHHHHHHHHHHHHHGGGGl.    HH    .lGGGGHHHHHHHHHp    HHHHHHHHHHHHHHHHHHHHHHHHHHHHHHHHHHHH",
"GGGGGGGGGGGGGGGSpX     .lGGGGHHHHHHHHHHHHHHHHHHHHHHHHHHHHGGGGl.        .lGGGGHHHHHHHHHHp    HHHHHHHHHHHHHHHHHHHHHHHHHHHHHHHHHHHH",
"GGGGGGGGGGGGGGGGGV7    iGGGGHHHHHHHHHHHHHHHHHHHHHHHHHHHHHHGGGGl.      .lGGGGHHHHHHHHHHHc     HHHHHHHHHHHHHHHHHHHHHHHHHHHHHHHHHHH",
"GGGGGGGGGGGGGGGGGGG7   aGGGHHHHHHHHHHHHHHHHHHHHHHHHHHHHHHHHGGGGl.    .lGGGGHHHHHHHHHHHHGeX    HHHHHHHHHHHHHHHHHHHHHHHHHHHHHHHHHH",
"GGGGGGGGGGGGGGGGGGGa   aGGHHHHHHHHHHHHHHHHHH   HHHHHHHHHHHHHGGGGp    lGGGGHHHHHHHHHHHHHGGm.    HHHHHHHHHHHHHHHHHHHHHHHHHHHHHHHHH",
"HHHHHHHHHHHHHHHHGGGa   aGHHHHHHHHHHHHHHH       oHHHHHHHHHHHHHGGGa   6GGGGHHHHHHHHHHHHHHGGGl.    HHHHHHHHHHHHHHHHHHHHHHHHHHHHHHHH",
"HHHHHHHHHHHHHHHHHHGa   9HHHHHHHHHHHH           2HHHHHHHHHHHHHHGGa   aGGGHHHHHHHHHHHHHHHHGGGl.    HHHHHHHHHHHHHHHHHHHHHHHHHHH    ",
"HHHHHHHHHHHHHHHHHHH     HHHHHHHHHHH           ;BHHHHHHHHHHHHHHHGa   aGGHHHHHHHHHHHHHHHHHGGGGl.    HHHHHHHHHHHHHHHHHHHHHHH       ",
"HHHHHHHHHHHHHHHHHHH     HHHHHHHHHHO       O3sNGGHHHHHHHHHHHHHHHH9   aGHHHHHHHHHHHHHHHHHHHHGGGl.    HHHHHHHHHHHHHHHHHHHH         ",
"HHHHHHHHHHHHHHHHHHH     HHHHHHHHHH&    =pbDGGGGGHHHHHHHHHHHHHHHH    9HHHHHHHHHHHHHHHHHHHHHGGGGl.    HHHHHHHHHHHHHHHHH           ",
"HHHHHHHHHHHHHHHHHHH     HHHHHHHHHHv    .lGGGGGGGHHHHHHHHHHHHHHHH     HHHHHHHHHHHHHHHHHHHHHHGGGGl.    HHHHHHHHHHHHHHH      .3iaaa",
"HHHHHHHHHHHHHHHHHHH     HHHHHHHHHHGl.   .lGGGGGHHHHHHHHHHHHHHHHH     HHHHHHHHHHHHHHHHHHHHHHHGGGGl.    HHHHHHHHHHHH       <MGGGGG",
"HHHHHHHHHHHHHHHHHHH    .HHHHHHHHHHGGl.   .lGGHHHHHHHHHHHHHHHHHHH     HHHHHHHHHHHHHHHHHHHHHHHHGGGGl.    HHHHHHHHH       %kGGGGGGG",
"HHHHHHHHHHHHHHHHHHH*   &HHHHHHHHHHGGGl.     HHHHHHHHHHHHHHHHHHHH     HHHHHHHHHHHHHHHHHHHHHHHHHGGGGl.    HHHHHHH      XaDGGGGGGGG",
"HHHHHHHHHHHHHHHHHHH3   6HHHHHHHHHHHGGGl.    HHHHHHHHHHHHHHHHHHHH     HHHHHHHHHHHHHHHHHHHHHHHHHHGGGGl.    HHHH       8CGGGGGGGGGG",
" HHHHHHHHHHHHHHHHHHz   lHHHHHHHHHHHGGGGl     HHHHHHHHHHHHHHHHHHH     HHHHHHHHHHHHHHHHHHHHHHHHHHHGGGGl.    H       >mGGGGGGHHHHHH",
"  HHHHHHHHHHHHHHHHHGe$wFHHHHHHHHHHHHGGGG0    HHHHHHHHHHHHHHHHHHH     HHHHHHHHHHHHHHHHHHHHHHHHHHHHGGGGl.         $gFGGGGGGHHHHHHH",
"   HHHHHHHHHHHHHHHHGGGGGHHHHHHHHHHHHHGGGa    HHHHHHHHHHHHHHHHHHH     HHHHHHHHHHHHHHHHHHHHHHHHHHHHHGGGGl.      .yAGGGGGGHHHHHHHHH",
"    HHHHHHHHHHHHHHHGGGGGHHHHHHHHHHHHHHGGa    HHHHHHHHHHHHHHHHHHH     HHHHHHHHHHHHHHHHHHHHHHHHHHHHHHGGGGl.    3VGGGGGGHHHHHHHHHHH",
".    HHHHHHHHHHHHHHHGGGGHHHHHHHHHHHHHHHGa    HHHHHHHHHHHHHHHHHHH              HHHHHHHHHHHHHHHHHHHHHHGGGG7   *GGGGGGHHHHHHHHHHHHH",
"l.    HHHHHHHHHHHHHHGGGHHHHHHHHHHHHHHHHH9    HHHHHHHHHHHHHHHHHHH               HHHHHHHHHHHHHHHHHHHHHHGGGa   rGGGGGHHHHHHHHHHHHHH",
"Gl.    HHHHHHHHHHHHHHHHHHHHHHHHHHHHHHHHH     HHHHHHHHHHHHHHHHHHH                HHHHHHHHHHHHHHHHHHHHHHGGa   aGGGHHHHHHHHHHHHHHHH",
"GGl.    HHHHHHHHHHHHHHHHHHHHHHHHHHHHHHHH     HHHHHHHHHHHHHHHHHH                  HHHHHHHHHHHHHHHHHHHHHHGa   aGHHHHHHHHHHHHHHHHHH",
"GGGl.    HHHHHHHHHHHHHHHHHHHHHHHHHHHHHHH     HHHHHHHHHHHHHHHHH    .7aaaaaaaa7.    HHHHHHHHHHHHHHHHHHHHHH3    HHHHHHHHHHHHHHHHHHH",
"GGGGl.    HHHHHHHHHHHHHHHHHHHHHHHHHHHHHH                         .lGGGGGGGGGGl.    HHHHHHHHHHHHHHHHHHHHH     HHHHHHHHHHHHHHHHHHH",
"HGGGGl.    HHHHHHHHHHHHHHHHHHHHHHHHHHHHH                        .lGGGGGGGGGGGGl.    HHHHHHHHHHHHHHHHHHHH     HHHHHHHHHHHHHHHHHHH",
"HHGGGGl.   HHHHHHHHHHHHHHHHHHHHHHHHHHHHH                        .lGGGGGGGGGGGGGl.    HHHHHHHHHHHHHHHHHHH     HHHHHHHHHHHHHHHHHHH",
"HHHGGGG0    HHHHHHHHHHHHHHHHHHHHHHHHHHHH                         .lGGGGGGGGGGGGGl.    HHHHHHHHHHHHHHHHHH     HHHHHHHHHHHHHHHHHHH",
"HHHHGGGa    HHHHHHHHHHHHHHHHHHHHHHHHHHH     0aaaaaaaaaaaaaaaa7.   .HHHHHHHHHHGGGGl.          HHHHHHHHHHHd    HHHHHHHHHHHHHHHHHHH",
"HHHHHGGa    HHHHHHHHHHHHHHHHHHHHHHHHHH    .lGGGGGGGGGGGGGGGGGGl.    HHHHHHHHHHGGGGl.           HHHHHHHHHG&    HHHHHHHHHHHHHHHHHH",
"HHHHHHGa    HHHHHHHHHHHHHHHHHHHHHHHHH    .lGGGGGGGGGGGGGGGGGGGGl.    HHHHHHHHHHGGGGl          +HHHHHHHHHGb    HHHHHHHHHHHHHHHHHH",
"HHHHHHHp    HHHHHHHHHHHHHHHHHHHHHHHH    .lGGGGGGGGGGGGGGGGGGGGGGl.    HHHHHHHHHHGGGG7         qHHHHHHHHHGG8    HHHHHHHHHHHHHHHHH",
"HHHHHHHp    HHHHHHHHHHHHHHHHHHHHHHH    .lGGGGGGGGGGGGGGGGGGGGGGGGl.    HHHHHHHHHHGGGGcaaaaaaaxFHHHHHHHHHHGCX    HHHHHHHHHHHHHHHH",
"HHHHHHHp    HHHHHHHHHHHHHHHHHHHHHH    .lGGGGHHHHHHHHHHHHHHHHHHGGGGl.    HHHHHHHHHHGGGGGGGGGGGGGHHHHHHHHHHGGp    HHHHHHHHHHHHHHHH",
"HHHHHHHp    HHHHHHHHHHHHHHHHHHHHH    .lGGGGHHHHHHHHHHHHHHHHHHHHGGGGl.    HHHHHHHHHHGGGGGGGGGGGGHHHHHHHHHHHGD%    HHHHHHHHHHHHHHH",
"HHHHHHHp    HHHHHHHHHHHHHHHHHHHH    .lGGGGHHHHHHHHHHHHHHHHHHHHHHGGGGl.    HHHHHHHHHHGGGGGGGGGGGHHHHHHHHHHHGGh                   ",
"HHHHHHHp    HHHHHHHHHHHHHHHHHHH    .lGGGGHHHHHHHHHHHHHHHHHHHHHHHHGGGGl.    HHHHHHHHHHHGGGGGGGGHHHHHHHHHHHHHGG<                  ",
"HHHHHHHp    HHHHHHHHHHHHHHHHHH    .lGGGGHHHHHHHHHHHHHHHHHHHHHHHHHHGGGGl.    HHHHHHHHHHHHHHHHHHHHHHHHHHHHHHHGGM                  ",
"HHHHHHHn     HHHHHHHHHHHHHHHH    .lGGGGHHHHHHHHHHHHHHHHHHHHHHHHHHHHGGGGl.    HHHHHHHHHHHHHHHHHHHHHHHHHHHHHHHGGM                 ",
"HHHHHHHGl.    HHHHHHHHHHHHHH    .lGGGGHHHHHHHHHHHHHHHHHHHHHHHHHHHHHHGGGGl.    HHHHHHHHHHHHHHHHHHHHHHHHHHHHHHGGGcaaaaaaaaaaaaaaaa",
"HHHHHHHGGl.    HHHHHHHHHHHH    .lGGGGHHHHHHHHHHHHHHHHHHHHHHHHHHHHHHHHGGGGl.    HHHHHHHHHHHHHHHHHHHHHHHHHHHHHHGGGGGGGGGGGGGGGGGGG",
"HHHHHHHGGGl.    HHHHHHHHHH    .lGGGGHHHHHHHHHHHHHHHHHHHHHHHHHHHHHHHHHHGGGGl.    HHHHHHHHHHHHHHHHHHHHHHHHHHHHHHGGGGGGGGGGGGGGGGGG",
"HHHHHHHHGGGl.                .lGGGGHHHHHHHHHHHHHHHHHHHHHHHHHHHHHHHHHHHHGGGGl.    HHHHHHHHHHHHHHHHHHHHHHHHHHHHHHGGGGGGGGGGGGGGGGG",
"HHHHHHHHGGGGl.              .lGGGGHHHHHHHHHHHHHHHHHHHHHHHHHHHHHHHHHHHHHH9aaa7                  HHHHHHHHHHHHHHHHHGGGGGGGGGGGGGGGG",
"HHHHHHHHHGGGGl.            .lGGGGHHHHHHHHHHHHHHHHHHHHHHHHHHHHHHHHHHHHHH                         HHHHHHHHHHHHHHHHHHHHHHHHHHHHHHHH",
"HHHHHHHHHHGGGG7            .lGGGHHHHHHHHHHHHHHHHHHHHHHHHHHHHHHHHHHHHHH                           HHHHHHHHHHHHHHHHHHHHHHHHHHHHHHH",
"HHHHHHHHHHHGGGa   ,aaaat+   .lGHHHHHHHHHHHHHHHHHHHHHHHHHHHHHHHHHHHHHH                             HHHHHHHHHHHHHHHHHHHHHHHHHHHHHH",
"HHHHHHHHHHHHGGa   aGGGGGm.   .HHHHHHHHHHHHHHHHHHHHHHHHHHHHHHHHHHHHHH    .7aaaaaaaaaaaaaaaaaaa7.    HHHHHHHHHHHHHHHHHHHHHHHHHHHHH",
"HHHHHHHHHHHHHGa   aGGGGGGl.    HHHHHHHHHHHHHHHHHHHHHHHHHHHHHHHHHHHH    .lGGGGGGGGGGGGGGGGGGGGGl.    HHHHHHHHHHHHHHHHHHHHHHHHHHHH",
"HHHHHHHHHHHHHH9   aGGGGGGGl.    HHHHHHHHHHHHHHHHHHHHHHHHHHHHHHHHHH    .lGGGGGGGGGGGGGGGGGGGGGGGl.    HHHHHHHHHHHHHHHHHHHHHHHHHHH",
"HHHHHHHHHHHHHH    rGGGGGGGGl.    HHHHHHHHHHHHHHHHHHHHHHHHHHHHHHHH    .lGGGGGGGGGGGGGGGGGGGGGGGGGl.    HHHHHHHHHHHHHHHHHHHHHHHHHH",
"HHHHHHHHHHHHHH     HHHHHHGGGl.    HHHHHHHHHHHHHHHHHHHHHHHHHHHHHH    .lGGGGGGGGGGGGGGGGGGGGGGGGGGGl.    HHHHHHHHHHHHHHHHHHHHHHHHH",
"HHHHHHHHHHHHHH     HHHHHHGGGGl.               HHHHHHHHHHHHHHHHH%   .lGGGGHHHHHHHHHHHHHHHHHHHHHGGGGl.           HHHHHHHHHHHHHHHHH",
"HHHHHHHHHHHHHH     HHHHHHHGGGGl.                HHHHHHHHHHHHHHH8  .lGGGGHHHHHHHHHHHHHHHHHHHHHHHGGGGl.           HHHHHHHHHHHHHHHH",
"HHHHHHHHHHHHHH     HHHHHHHHGGGGl.              +HHHHHHHHHHHHHHHZw2vGGGGHHHHHHHHHHHHHHHHHHHHHHHHHGGGGl.           HHHHHHHHHHHHHHH",
"HHHHHHHHHHHHHH     HHHHHHHHHGGGGl              qHHHHHHHHHHHHHHHGGGGGGGHHHHHHHHHHHHHHHHHHHHHHHHHHHGGGGl.           HHHHHHHHHHHHHH",
"HHHHHHHHHHHHHH     HHHHHHHHHHGGGGvaaaaaaaaaaaaxFHHHHHHHHHHHHHHHGGGGGGHHHHHHHHHHHHHHHHHHHHHHHHHHHHHGGGGvaaaaaa7.    HHHHHHHHHHHHH",
"HHHHHHHHHHHHHH     HHHHHHHHHHHGGGGGGGGGGGGGGGGGGHHHHHHHHHHHHHHHGGGGGHHHHHHHHHHHHHHHHHHHHHHHHHHHHHHHGGGGGGGGGGGl.    HHHHHHHHHHHH",
"HHHHHHHHHHHHHH     HHHHHHHHHHHHGGGGGGGGGGGGGGGGGHHHHHHHHHHHHHHHHGGHHHHHHHHHHHHHHHHHHHHHHHHHHHHHHHHHHGGGGGGGGGGGl.    HHHHHHHHHHH",
"HHHHHHHHHHHHHH     HHHHHHHHHHHHHGGGGGGGGGGGGGGGGHHHHHHHHHHHHHHHHHHHHHHHHHHHHHHHHHHHHHHHHHHHHHHHHHHHHHGGGGGGGGGGGl.    HHHHHHHHHH",
"HHHHHHHHHHHHHH     HHHHHHHHHHHHHHHGGGGGGGGGGGGGHHHHHHHHHHHHHHHHHHHHHHHHHHHHHHHHHHHHHHHHHHHHHHHHHHHHHHHHGGGGGGGGGGl.    HHHHHHHHH",
"HHHHHHHHHHHHHH     HHHHHHHHHHHHHHHHHHHHHHHHHHHHHHHHHHHHHHHHHHHHHHHHHHHHHHHHHHHHHHHHHHHHHHHHHHHHHHHHHHHHHHHHHHHGGGGl.    HHHHHHHH",
"HHHHHHHHHHHHHH     HHHHHHHHHHHHHHHHHHHHHHHHHHHHHHHHHHHHHHHHHHHHHHHHHHHHHHHHHHHHHHHHHHHHHHHHHHHHHHHHHHHHHHHHHHHHGGGGl.    HHHHHHH",
"HHHHHHHHHHHHHH     HHHHHHHHHHHHHHHHHHHHHHHHHHHHHHHHHHHHHHHHHHHHHHHHHHHHHHHHHHHHHHHHHHHHHHHHHHHHHHHHHHHHHHHHHHHHHGGGGl.    HHHHHH"
};
