/* XPM */
static char *_9eba371d3484e0082ee77758eb0663fWISgROQXFDMU51jJ[] = {
/* columns rows colors chars-per-pixel */
"128 128 14 1 ",
"  c None",
". c gray24",
"X c #3E3E3E",
"o c gray25",
"O c gray35",
"+ c #5A5A5A",
"@ c gray36",
"# c #646464",
"$ c #676767",
"% c #686868",
"& c DimGray",
"* c #777777",
"= c gray47",
"- c gray59",
/* pixels */
"                                                                                                                                ",
"                                                                                                                                ",
"                                                                                                                                ",
"                                                                                                                                ",
"                                                                                                                                ",
"                                                                                                                                ",
"                                                                                                                                ",
"                                                                                                                                ",
"                                                                                                                                ",
"                                                                                                                                ",
"                                                                                                                                ",
"                                                                                                                                ",
"                                                                                                                                ",
"                                                                                                                                ",
"                                                                                                                                ",
"                                                                                                                                ",
"                                                                                                                                ",
"                                                                                                                                ",
"                                                                                                                                ",
"                                                                                                                                ",
"                                                                                                                                ",
"                                                                                                                                ",
"                                                                                                                                ",
"                                                                                                                                ",
"                                                                                                                                ",
"                                                                                                                                ",
"                                                                                                                                ",
"                                                                                                                                ",
"                                                                                                                                ",
"                                                                                                                                ",
"                                                                                                                                ",
"                                                    ..                                                                          ",
"                                                   ....                                                                         ",
"                                                  .....                                                                         ",
"                                                 ....o=                                                                         ",
"                                                .....=-                                                                         ",
"                                               .....=--                                                                         ",
"                                               ....+---                                                                         ",
"                                               ....&---                                                                         ",
"                                               ....&--                                                                          ",
"                                               ....&-                                                                           ",
"                                               ....&                                                                            ",
"                                               ....o                                                                            ",
"                                               .....                                                                            ",
"                                               .....                   --=.....                                                 ",
"                                               .....                   ---=o....                                                ",
"                                               .....                    ---=o....                                               ",
"                                               .....                    ----=.....                                              ",
"                                               .....                     ----=.....                                             ",
"                                               .....                      ----=.....        .                                   ",
"                                               .....                       ----=.....      ...                                  ",
"                                         ............                       ----=.....    .....                                 ",
"                                         .............                       ----*.....  .....=                                 ",
"                                         ..............                       *$#$+..........=-                                 ",
"                                         ...............                      ..............=--                                 ",
"                                         &&&&&&&&&&+.....                    ..............&---                                 ",
"                                         -----------=.....                  ..............&----                                 ",
"                                         ------------=o....                .....$&&&&&&$$$----                                  ",
"                                         -------------=.....              .....=-------------                                   ",
"                                         --------------=.....            .....=-------------                                    ",
"                                                    ----=.....          ....o=-------------                                     ",
"                                                     ----=.....        .....=-------------                                      ",
"                                                      ----=o....      .....=----                                                ",
"                                                       ----=.....    ....o=----                                                 ",
"                                                        ----=o....  ....o=----                                                  ",
"                                                         ----=..........=----                                                   ",
"                                                          ----=........=----                                                    ",
"                                                           ----=......=----                                                     ",
"                                                            ----&....=----                                                      ",
"                                                             ---&...+----                                                       ",
"                                                              --&...&---                                                        ",
"                                                               -&...&--                                                         ",
"                                                                @...&-                                                          ",
"                                                                ....@                                                           ",
"                                                                .....                                                           ",
"                                                                .....                                                           ",
"                                                                .....                                                           ",
"                                                                .....                                                           ",
"                                                                .....                                                           ",
"                                                                .....                                                           ",
"                                                                .....                                                           ",
"                                                                .....                                                           ",
"                                                                .....                                                           ",
"                                                                .....                                                           ",
"                                                                .....                                                           ",
"                                                                .....                                                           ",
"                                                               ......                                                           ",
"                                                              .....+-                                                           ",
"                                              ...................o=--                                                           ",
"                                              ...................=---                                                           ",
"                                              ..................=----                                                           ",
"                                              .................=----                                                            ",
"                                              &&&&&&&&&&&&&&&&=----                                                             ",
"                                              --------------------                                                              ",
"                                              -------------------                                                               ",
"                                              ------------------                                                                ",
"                                              -----------------                                                                 ",
"                                                                                                                                ",
"                                                                                                                                ",
"                                                                                                                                ",
"                                                                                                                                ",
"                                                                                                                                ",
"                                                                                                                                ",
"                                                                                                                                ",
"                                                                                                                                ",
"                                                                                                                                ",
"                                                                                                                                ",
"                                                                                                                                ",
"                                                                                                                                ",
"                                                                                                                                ",
"                                                                                                                                ",
"                                                                                                                                ",
"                                                                                                                                ",
"                                                                                                                                ",
"                                                                                                                                ",
"                                                                                                                                ",
"                                                                                                                                ",
"                                                                                                                                ",
"                                                                                                                                ",
"                                                                                                                                ",
"                                                                                                                                ",
"                                                                                                                                ",
"                                                                                                                                ",
"                                                                                                                                ",
"                                                                                                                                ",
"                                                                                                                                ",
"                                                                                                                                ",
"                                                                                                                                "
};
