/* XPM */
static char *result[] = {
/* columns rows colors chars-per-pixel */
"128 128 50 1 ",
"  c gray24",
". c #3E3E3E",
"X c #3F3F3F",
"o c gray25",
"O c #414141",
"+ c gray26",
"@ c gray27",
"# c #464646",
"$ c gray28",
"% c #484848",
"& c gray29",
"* c #4C4C4C",
"= c #505050",
"- c gray32",
"; c #535353",
": c #565656",
"> c gray35",
", c #5A5A5A",
"< c #5B5B5B",
"1 c gray36",
"2 c #5D5D5D",
"3 c #606060",
"4 c gray38",
"5 c #626262",
"6 c gray39",
"7 c #646464",
"8 c #656565",
"9 c gray40",
"0 c #676767",
"q c #686868",
"w c DimGray",
"e c #6D6D6D",
"r c #717171",
"t c #767676",
"y c #777777",
"u c gray47",
"i c #797979",
"p c #7B7B7B",
"a c #7C7C7C",
"s c #7E7E7E",
"d c gray50",
"f c #808080",
"g c #818181",
"h c gray52",
"j c gray53",
"k c #8B8B8B",
"l c #939393",
"z c gray58",
"x c gray59",
"c c None",
/* pixels */
"cccccccccccccccccccccccccccccccccccccccccccccccccccccccccccccccccccccccccccccccccccccccccccccccccccccccccccccccccccccccccccccccc",
"cccccccccccccccccccccccccccccccccccccccccccccccccccccccccccccccccccccccccccccccccccccccccccccccccccccccccccccccccccccccccccccccc",
"cccccccccccccccccccccccccccccccccccccccccccccccccccccccccccccccccccccccccccccccccccccccccccccccccccccccccccccccccccccccccccccccc",
"cccccccccccccccccccccccccccccccccccccccccccccccccccccccccccccccccccccccccccccccccccccccccccccccccccccccccccccccccccccccccccccccc",
"cccccccccccccccccccccccccccccccccccccccccccccccccccccccccccccccccccccccccccccccccccccccccccccccccccccccccccccccccccccccccccccccc",
"cccccccccccccccccccccccccccccccccccccccccccccccccccccccccccccccccccccccccccccccccccccccccccccccccccccccccccccccccccccccccccccccc",
"cccccccccccccccccccccccccccccccccccccccccccccccccccccccccccccccccccccccccccccccccccccccccccccccccccccccccccccccccccccccccccccccc",
"cccccccccccccccccccccccccccccccccccccccccccccccccccccccccccccccccccccccccccccccccccccccccccccccccccccccccccccccccccccccccccccccc",
"cccccccccccccccccccccccccccccccccccccccccccccccccccccccccccccccccccccccccccccccccccccccccccccccccccccccccccccccccccccccccccccccc",
"cccccccccccccccccccccccccccccccccccccccccccccccccccccccccccccccccccccccccccccccccccccccccccccccccccccccccccccccccccccccccccccccc",
"cccccccccccccccccccccccccccccccccccccccccccccccccccccccccccccccccccccccccccccccccccccccccccccccccccccccccccccccccccccccccccccccc",
"cccccccccccccccccccccccccccccccc              cccccccccccccccccccccccccccccccccccccccccccccccccccccccccccccccccccccccccccccccccc",
"cccccccccccccccccccccccccccccccc              .ccccccccccccccccccccccccccccccccccccccccccccccccccccccccccccccccccccccccccccccccc",
"cccccccccccccccccccccccccccccccc               .cccccccccccccccccccccccccccccccccccccccccccccccccccccccccccccccccccccccccccccccc",
"cccccccccccccccccccccccccccccccc                .ccccccccccccccccccccccccccccccccccccccccccccccccccccccccccccccccccccccccccccccc",
"ccccccccccccccccccccccccccccccccwwwwwwwwwwww9.    cccccccccccccccccccccccccccccccccccccccccccccccccccccccccccccccccccccccccccccc",
"ccccccccccccccccccccccccccccccccxxxxxxxxxxxxxu.    ccccccccccccccccccccccccccccccccccccccccccccccccccccccccccccccccccccccccccccc",
"ccccccccccccccccccccccccccccccccxxxxxxxxxxxxxxu.    cccccccccccccccccccccccccccccccccccccccccccccccccccccccccccccccccccccccccccc",
"ccccccccccccccccccccccccccccccccxxxxxxxxxxxxxxxu.    ccccccccccccccccccccccccccccccccccccccccccccccccccccccccccccccccccccccccccc",
"ccccccccccccccccccccccccccccccccxxxxxxxxxxxxxxxxu.    cccccccccc         ccccccccccccccccccccccccccccccccccccccccccccccccccccccc",
"cccccccccccccccccccccccccccccccccccccccccccccxxxxu.    cccccccc          ccccccccccccccccccccccccccccccccccccccccccccccccccccccc",
"ccccccccccccccccccccccccccccccccccccccccccccccxxxxu.    cccccc           ccccccccccccccccccccccccccccccccccccccccccccccccccccccc",
"cccccccccccccccccccccccccccccccccccccccccccccccxxxxu.    cccc            ccccccccccccccccccccccccccccccc1    ccccccccccccccccccc",
"ccccccccccccccccccccccccccccccccccccccccccccccccxxxxu.    cc    .,wwwwwwwccccccccccccccccccccccccccccccc     ccccccccccccccccccc",
"cccccccccccccccccccccccccccccccccccccccccccccccccxxxxu.        .uxxxxxxxxccccccccccccccccccccccccccccccc     ccccccccccccccccccc",
"ccccccccccccccccccccccccccccccccccccccccccccccccccxxxxu.      .uxxxxxxxxxccccccccccccccccccccccccccccccc     ccccccccccccccccccc",
"cccccccccccccccccccccccccccccccccccccccccccccccccccxxxxu.    .uxxxxxxxxxxccccccccccccccccccccccccccccccc     ccccccccccccccccccc",
"ccccccccccccccccccccccccccccccccccccccccccccccccccccxxxu.    uxxxxxxxxxxxccccccccccccccccccccccccccccccc     ccccccccccccccccccc",
"cccccccccccccccccccccccccccccccccccccccccccccccccccccxu.    rxxxxccccccccccccccccccccccccccccccccccccccc     ccccccccccccccccccc",
"ccccccccccccccccccccccc           cccccccccccccccccccc.   .uxxxxcccccccccccccccccccccccccccccccccccccccc     ccccccccccccccccccc",
"ccccccccccccccccccccccc            cccccccccccccccccc    .uxxxxccccccccccccccccccccccccccccccccccccccccc     ccccccccccccccccccc",
"ccccccccccccccccccccccc             cccccccccccccccc    .uxxxxcccccccccccccccccccccccccccccccccccccccccc     ccccccccccccccccccc",
"ccccccccccccccccccccccc             ccccccccccccccc    .uxxxxccccccccccccccccccccccccccccccccccccccccccc     ccccccccccccccccccc",
"cccccccccccccccccccccccwwwwwwww-    cccccccccccccc    .uxxxxcccccccccccccccccccccccccccccccccccccccccccc     ccccccccccccccccccc",
"cccccccccccccccccccccccxxxxxxxxw    ccccccccccccc    .uxxxxccccccccccccccccccccccccccccccccccccccccccccc     ccccccccccccccccccc",
"cccccccccccccccccccccccxxxxxxxxw    cccccccccccc    .uxxxxccccccccccccccccccc           cccccccccccccccc                cccccccc",
"cccccccccccccccccccccccxxxxxxxxw    ccccccccccc    .uxxxxccccccccccccccccccc              cccccccccccccc                 ccccccc",
"cccccccccccccccccccccccxxxxxxxx6    ccccccccccc    ,xxxxccccccccccccccccccc              Occcccccccccccc                  cccccc",
"ccccccccccccccccccccccccccccccc     ccccccccccc    wxxxccccccccccccccccccc               3ccccccccccccc                    ccccc",
"ccccccccccccccccccccccccccccccc     ccccccccccc    wxxcccccccccccccccccc     .,wwwwwwwwwpzcccccccccccc    .,wwwwwwwwww,.    cccc",
"ccccccccccccccccccccccccccccccc     ccccccccccc    wxcccccccccccccccccc+    .uxxxxxxxxxxxxccccccccccc    .uxxxxxxxxxxxxu.    ccc",
"ccccccccccccccccccccccccccccccc     ccccccccccc    0ccccccccccccccccccc=    8xxxxxxxxxxxxxcccccccccc    .uxxxxxxxxxxxxxx,    ccc",
"ccccccccccccccccccccccccccccccc     ccccccccccc    occcccccccccccccccccs.   .uxxxxxxxxxxxxccccccccc    .uxxxxxxxxxxxxxxxw    ccc",
"ccccccccccccccccccccccccccccccc     ccccccccccc     cccccccccccccccccccxu.   .txxxxxxxxxxccccccccc    .uxxxxxxxxxxxxxxxxw   occc",
"ccccccccccccccccccccccccccccccc     ccccccccccc     cccccccccccccccccccxxu.    cccccccccccccccccc    .uxxxxccccccccccccxw   -ccc",
"ccccccccccccccccccccccccccccccc     ccccccccccc     cccccccccccccccccccxxxu.    cccccccccccccccc    .uxxxxccccccccccccccw   <ccc",
"ccccccccccccccccccccccccccccccc     ccccccccccc     ccccccccccccccccccccxxxu.    cccccccccccccc    .uxxxxccccccccccccccca   yccc",
"ccccccccccccccccccccccccccccccc     ccccccccccc     ccccccccccccccccccccxxxxu.    cccccccccccc    .uxxxxccccccccccccccccx5@4zccc",
"ccccccccccccccccccccccccccccccc     ccccccccccc     cccccccccccccccccccccxxxxu.    cccccccccc    .uxxxxcccccccccccccccccxxxxxccc",
"ccccccccccccccccccccccccccccccc     ccccccccccc     ccccccccccccccccccccccxxxxu.    cccccccc    .uxxxxccccccccccccccccccxxxxxccc",
"ccccccccccccccccccccccccccccccc     ccccccccccc     cccccccccccccccccccccccxxxxu.    cccccc    .uxxxxccccccccccccccccccccxxxxccc",
"ccccccccccccccccccccccccccccccc                      cccccccccccccccccccccccxxxxu.    cccc    .uxxxxcccccccccccccccccccccxxxcccc",
"ccccccccccccccccccccccccccccccc                       cccccccccccccccccccccccxxxxu.    cc    .uxxxxccccccccccccccccccccccccccccc",
"ccccccccccccccccccccccccccccccc                        cccccccccccccccccccccccy777,         .uxxxxcccccccccccccccccccccccccccccc",
"cccccccccccccccccccccccccccccc                          cccccccccccccccccccccc             .uxxxxccccccccccccccccccccccccccccccc",
"ccccccccccccccccccccccccccccc     ,wwwwwwwwwwwwwwww,.    cccccccccccccccccccc              0xxxxcccccccccccccccccccccccccccccccc",
"cccccccccccccccccccccccccccc    .uxxxxxxxxxxxxxxxxxxu.    cccccccccccccccccc               wxxxccccccccccccccccccccccccccccccccc",
"ccccccccccccccccccccccccccc    .uxxxxxxxxxxxxxxxxxxxxu.    cccccccccccccccc    .0wwwwww-   wxxcccccccccccccccccccccccccccccccccc",
"cccccccccccccccccccccccccc    .uxxxxxxxxxxxxxxxxxxxxxxu.    cccccccccccccc    .uxxxxxxxw   wxccccccccccccccccccccccccccccccccccc",
"ccccccccccccccccccccccccc    .uxxxxxxxxxxxxxxxxxxxxxxxxu.    cccccccccccc    .uxxxxxxxxw   1cccccccccccccccccccccccccccccccccccc",
"cccccccccccccccccccccccc    .uxxxxccccccccccccccccccxxxxu.    cccccccccc    .uxxxxxxxxxw    cccccccccccccccccccccccccccccccccccc",
"ccccccccccccccccccccccc    .uxxxxccccccccccccccccccccxxxxu.    cccccccc    .uxxxxxxxxxxw    cccccccccccccccccccccccccccccccccccc",
"cccccccccccccccccccccc    .uxxxxccccccccccccccccccccccxxxxu.    cccccc    .uxxxxcccccccq    cccccccccccccccccccccccccccccccccccc",
"ccccccccccccccccccc      .uxxxxccccccccccccccccccccccccxxxxu.    cccc    .uxxxxccccccccq    cccccccccccccccccccccccccccccccccccc",
"ccccccccccccccccccc     .uxxxxccccccccccccccccccccccccccxxxxu.    cc    .uxxxxcccccccccq    cccccccccccccccccccccccccccccccccccc",
"ccccccccccccccccccc    .uxxxxccccccccccccccccccccccccccccxxxxu.        .uxxxxccccccccccq    cccccccccccccccccccccccccccccccccccc",
"ccccccccccccccccccc    0xxxxccccccccccccccccccccccccccccccxxxxu.      .uxxxxccccccccccca     ccccccccccccccccccccccccccccccccccc",
"ccccccccccccccccccc,   wxxxccccccccccccccccccccccccccccccccxxxxu.    .uxxxxccccccccccccx5X    cccccccccccccccccccccccccccccccccc",
"cccccccccccccccccccw   wxxcccccccccccccccccc   cccccccccccccxxxxq    uxxxxcccccccccccccxxg.    ccccccccccccccccccccccccccccccccc",
"cccccccccccccccccccw   wxccccccccccccccc       occcccccccccccxxxw   >xxxxccccccccccccccxxxu.    cccccccccccccccccccccccccccccccc",
"cccccccccccccccccccw   1cccccccccccc           ;ccccccccccccccxxw   wxxxccccccccccccccccxxxu.    ccccccccccccccccccccccccccccccc",
"ccccccccccccccccccc     ccccccccccc           *jcccccccccccccccxw   wxxcccccccccccccccccxxxxu.    cccccccccccccccccccccccccccccc",
"ccccccccccccccccccc     ccccccccccO       O:ehxxcccccccccccccccc1   wxccccccccccccccccccccxxxu.    ccccccccccccccccccccccccccccc",
"ccccccccccccccccccc     cccccccccc$    &qdlxxxxxcccccccccccccccc    1cccccccccccccccccccccxxxxu.    cccccccccccccccccccccccccccc",
"ccccccccccccccccccc     ccccccccccs    .uxxxxxxxcccccccccccccccc     ccccccccccccccccccccccxxxxu.    ccccccccccccccccccccccccccc",
"ccccccccccccccccccc     ccccccccccxu.   .uxxxxxccccccccccccccccc     cccccccccccccccccccccccxxxxu.    cccccccccccccccccccccccccc",
"ccccccccccccccccccc    .ccccccccccxxu.   .uxxccccccccccccccccccc     ccccccccccccccccccccccccxxxxu.    ccccccccccccccccccccccccc",
"ccccccccccccccccccc%   $ccccccccccxxxu.     cccccccccccccccccccc     cccccccccccccccccccccccccxxxxu.    cccccccccccccccccccccccc",
"ccccccccccccccccccc:   >cccccccccccxxxu.    cccccccccccccccccccc     ccccccccccccccccccccccccccxxxxu.   cccccccccccccccccccccccc",
"ccccccccccccccccccci   ucccccccccccxxxxu     ccccccccccccccccccc     cccccccccccccccccccccccccccxxxxu.  cccccccccccccccccccccccc",
"cccccccccccccccccccx5@4zccccccccccccxxxx2    ccccccccccccccccccc     ccccccccccccccccccccccccccccxxxxu. cccccccccccccccccccccccc",
"cccccccccccccccccccxxxxxcccccccccccccxxxw    ccccccccccccccccccc     cccccccccccccccccccccccccccccxxxxu.cccccccccccccccccccccccc",
"cccccccccccccccccccxxxxxccccccccccccccxxw    ccccccccccccccccccc     ccccccccccccccccccccccccccccccxxxxucccccccccccccccccccccccc",
"ccccccccccccccccccccxxxxcccccccccccccccxw    ccccccccccccccccccc              ccccccccccccccccccccccxxxxcccccccccccccccccccccccc",
"ccccccccccccccccccccxxxccccccccccccccccc1    ccccccccccccccccccc               ccccccccccccccccccccccxxxcccccccccccccccccccccccc",
"cccccccccccccccccccccccccccccccccccccccc     ccccccccccccccccccc                ccccccccccccccccccccccxxcccccccccccccccccccccccc",
"cccccccccccccccccccccccccccccccccccccccc     cccccccccccccccccc                  ccccccccccccccccccccccxcccccccccccccccccccccccc",
"cccccccccccccccccccccccccccccccccccccccc     ccccccccccccccccc    .,wwwwwwww,.    cccccccccccccccccccccccccccccccccccccccccccccc",
"cccccccccccccccccccccccccccccccccccccccc                         .uxxxxxxxxxxu.    ccccccccccccccccccccccccccccccccccccccccccccc",
"cccccccccccccccccccccccccccccccccccccccc                        .uxxxxxxxxxxxxu.    cccccccccccccccccccccccccccccccccccccccccccc",
"cccccccccccccccccccccccccccccccccccccccc                        .uxxxxxxxxxxxxxu.    ccccccccccccccccccccccccccccccccccccccccccc",
"cccccccccccccccccccccccccccccccccccccccc                         .uxxxxxxxxxxxxxu.    cccccccccccccccccccccccccccccccccccccccccc",
"ccccccccccccccccccccccccccccccccccccccc     2wwwwwwwwwwwwwwww,.   .ccccccccccxxxxu.          ccccccccccccccccccccccccccccccccccc",
"cccccccccccccccccccccccccccccccccccccc    .uxxxxxxxxxxxxxxxxxxu.    ccccccccccxxxxu.           ccccccccccccccccccccccccccccccccc",
"ccccccccccccccccccccccccccccccccccccc    .uxxxxxxxxxxxxxxxxxxxxu.    ccccccccccxxxxu          +ccccccccccccccccccccccccccccccccc",
"cccccccccccccccccccccccccccccccccccc    .uxxxxxxxxxxxxxxxxxxxxxxu.    ccccccccccxxxx,         3ccccccccccccccccccccccccccccccccc",
"ccccccccccccccccccccccccccccccccccc    .uxxxxxxxxxxxxxxxxxxxxxxxxu.    ccccccccccxxxxawwwwwwwpzccccccccccccccccccccccccccccccccc",
"cccccccccccccccccccccccccccccccccc    .uxxxxccccccccccccccccccxxxxu.    ccccccccccxxxxxxxxxxxxxccccccccccccccccccccccccccccccccc",
"ccccccccccccccccccccccccccccccccc    .uxxxxccccccccccccccccccccxxxxu.    ccccccccccxxxxxxxxxxxxccccccccccccccccccccccccccccccccc",
"cccccccccccccccccccccccccccccccc    .uxxxxccccccccccccccccccccccxxxxu.    ccccccccccxxxxxxxxxxxccccccccccccccccccccccccccccccccc",
"ccccccccccccccccccccccccccccccc    .uxxxxccccccccccccccccccccccccxxxxu.    cccccccccccxxxxxxxxcccccccccccccccccccccccccccccccccc",
"cccccccccccccccccccccccccccccc    .uxxxxccccccccccccccccccccccccccxxxxu.    cccccccccccccccccccccccccccccccccccccccccccccccccccc",
"cccccccf     cccccccccccccccc    .uxxxxccccccccccccccccccccccccccccxxxxu.    ccccccccccccccccccccccccccccccccccccccccccccccccccc",
"cccccccxu.    cccccccccccccc    .uxxxxccccccccccccccccccccccccccccccxxxxu.    cccccccccccccccccccccccccccccccccccccccccccccccccc",
"cccccccxxu.    cccccccccccc    .uxxxxccccccccccccccccccccccccccccccccxxxxu.    ccccccccccccccccccccccccccccccccccccccccccccccccc",
"cccccccxxxu.    cccccccccc    .uxxxxccccccccccccccccccccccccccccccccccxxxxu.    cccccccccccccccccccccccccccccccccccccccccccccccc",
"ccccccccxxxu.                .uxxxxccccccccccccccccccccccccccccccccccccxxxxu.    ccccccccccccccccccccccccccccccccccccccccccccccc",
"ccccccccxxxxu.              .uxxxxcccccccccccccccccccccccccccccccccccccc1www,                  ccccccccccccccccccccccccccccccccc",
"cccccccccxxxxu.            .uxxxxcccccccccccccccccccccccccccccccccccccc                         cccccccccccccccccccccccccccccccc",
"ccccccccccxxxx,            .uxxxcccccccccccccccccccccccccccccccccccccc                           ccccccccccccccccccccccccccccccc",
"cccccccccccxxxw   =wwww7+   .uxcccccccccccccccccccccccccccccccccccccc                             cccccccccccccccccccccccccccccc",
"ccccccccccccxxw   wxxxxxg.   .cccccccccccccccccccccccccccccccccccccc    .,wwwwwwwwwwwwwwwwwww,.    ccccccccccccccccccccccccccccc",
"cccccccccccccxw   wxxxxxxu.    cccccccccccccccccccccccccccccccccccc    .uxxxxxxxxxxxxxxxxxxxxxu.    cccccccccccccccccccccccccccc",
"cccccccccccccc1   wxxxxxxxu.    cccccccccccccccccccccccccccccccccc    .uxxxxxxxxxxxxxxxxxxxxxxxu.    ccccccccccccccccccccccccccc",
"cccccccccccccc    6xxxxxxxxu.    cccccccccccccccccccccccccccccccc    .uxxxxxxxxxxxxxxxxxxxxxxxxxu.    cccccccccccccccccccccccccc",
"cccccccccccccccccccccccccxxxu.    cccccccccccccccccccccccccccccc    .uxxxxxxxxxxxxxxxxxxxxxxxxxxxu.    ccccccccccccccccccccccccc",
"cccccccccccccccccccccccccxxxxu.    cccccccccccccccccccccccccccc#   .uxxxxccccccccccccccccccccccccccccccccccccccccccccccccccccccc",
"ccccccccccccccccccccccccccxxxxu.   cccccccccccccccccccccccccccc<  .uxxxxcccccccccccccccccccccccccccccccccccccccccccccccccccccccc",
"cccccccccccccccccccccccccccxxxxu.  cccccccccccccccccccccccccccck4;sxxxxccccccccccccccccccccccccccccccccccccccccccccccccccccccccc",
"ccccccccccccccccccccccccccccxxxxu  ccccccccccccccccccccccccccccxxxxxxxcccccccccccccccccccccccccccccccccccccccccccccccccccccccccc",
"cccccccccccccccccccccccccccccxxxxswccccccccccccccccccccccccccccxxxxxxccccccccccccccccccccccccccccccccccccccccccccccccccccccccccc",
"ccccccccccccccccccccccccccccccxxxxxccccccccccccccccccccccccccccxxxxxcccccccccccccccccccccccccccccccccccccccccccccccccccccccccccc",
"cccccccccccccccccccccccccccccccxxxxcccccccccccccccccccccccccccccxxcccccccccccccccccccccccccccccccccccccccccccccccccccccccccccccc",
"ccccccccccccccccccccccccccccccccxxxccccccccccccccccccccccccccccccccccccccccccccccccccccccccccccccccccccccccccccccccccccccccccccc",
"ccccccccccccccccccccccccccccccccccxccccccccccccccccccccccccccccccccccccccccccccccccccccccccccccccccccccccccccccccccccccccccccccc",
"cccccccccccccccccccccccccccccccccccccccccccccccccccccccccccccccccccccccccccccccccccccccccccccccccccccccccccccccccccccccccccccccc",
"cccccccccccccccccccccccccccccccccccccccccccccccccccccccccccccccccccccccccccccccccccccccccccccccccccccccccccccccccccccccccccccccc",
"cccccccccccccccccccccccccccccccccccccccccccccccccccccccccccccccccccccccccccccccccccccccccccccccccccccccccccccccccccccccccccccccc"
};
