/* XPM */
static char *result[] = {
/* columns rows colors chars-per-pixel */
"128 128 64 1 ",
"  c gray24",
". c #3E3E3E",
"X c #3F3F3F",
"o c gray25",
"O c #414141",
"+ c gray26",
"@ c #434343",
"# c gray27",
"$ c #464646",
"% c gray28",
"& c #484848",
"* c gray29",
"= c #4B4B4B",
"- c #4C4C4C",
"; c gray30",
": c #505050",
"> c #515151",
", c gray32",
"< c #535353",
"1 c #565656",
"2 c gray34",
"3 c #585858",
"4 c gray35",
"5 c #5A5A5A",
"6 c #5B5B5B",
"7 c gray36",
"8 c #5D5D5D",
"9 c #606060",
"0 c gray38",
"q c #626262",
"w c gray39",
"e c #646464",
"r c #656565",
"t c gray40",
"y c #676767",
"u c #686868",
"i c DimGray",
"p c #6D6D6D",
"a c gray44",
"s c #717171",
"d c gray45",
"f c gray46",
"g c #767676",
"h c #777777",
"j c gray47",
"k c #797979",
"l c #7B7B7B",
"z c #7C7C7C",
"x c #7E7E7E",
"c c gray50",
"v c #808080",
"b c #818181",
"n c gray52",
"m c gray53",
"M c #898989",
"N c gray54",
"B c #8B8B8B",
"V c #909090",
"C c gray57",
"Z c #939393",
"A c gray58",
"S c gray59",
"D c #979797",
"F c None",
/* pixels */
"FFFFFFFFFFFFFFFFFFFFFFFFFFFFFFFFFFFFFFFFFFFFFFF     FFFFFFFFFFFFFFFFFFFFFFFFFFFFFFFFFFFFFFFFFFFFFFFFFFFFFFFFFFFFFFFFFFFFFFFFFFFF",
"FFFFFFFFFFFFFFFFFFFFFFFFFFFFFFFFFFFFFFFFFFFFFFF     FFFFFFFFFFFFFFFFFFFFFFFFFFFFFFFFFFFFFFFFFFFFFFFFFFFFFFFFFFFFFFFFFFFFFFFFFFFF",
"FFFFFFFFFFFFFFFFFFFFFFFFFFFFFFFFFFFFFFFFFFFFFFF     FFFFFFFFFFFFFFFFFFFFFFFFFFFFFFFFFFFFFFFFFFFFFFFFFFFFFFFFFFFFFFFFFFFFFFFFFFFF",
"FFFFFFFFFFFFFFFFFFFFFFFFFFFFFFFFFFFFFFFFFFFFFFF     FFFFFFFFFFFFFFFFFFFFFFFFFFFFFFFFFFFFFFFFFFFFFFFFFFFFFFFFFFFFFFFFFFFFFFFFFFFF",
"FFFFFFFFFFFFFFFFFFFFFFFFFFFFFFFFFFFFFFFFFFFFFFF        FFFFFFFFFFFFFFFFFFFFFFFFFFFFFFFFFFFFFFFFFFFFFFFFFFFFFFFFFFFFFFFFFFFFFFFFF",
"FFFFFFFFFFFFFFFFFFFFFFFFFFFFFFFFFFFFFFFFFFFFFFF          FFFFFFFFFFFFFFFFFFFFFFFFFFFFFFFFFFFFFFFFFFFFFFFFFFFFFFFFFFFFFFFFFFFFFFF",
"FFFFFFFFFFFFFFFFFFFFFFFFFFFFFFFFFFFFFFFFFFFFFFF         +FFFFFFFFFFFFFFFFFFFFFFFFFFFFFFFFFFFFFFFFFFFFFFFFFFFFFFFFFFFFFFFFFFFFFFF",
"FFFFFFFFFFFFFFFFFFFFFFFFFFFFFFFFFFFFFFFFFFFFFF          9FFFFFFFFFFFFFFFFFFFFFFFFFFFFFFFFFFFFFFFFFFFFFFFFFFFFFFFFFFFFFFFFFFFFFFF",
"FFFFFFFFFFFFFFFFFFFFFFFFFFFFFFFFFFFFFFFFFFFFF     *uiiilAFFFFFFFFFFFFFFFFFFFFFF     FFFFFFFFFFFFFFFFFFFFFFFFFFFFFFFFFFFFFFFFFFFF",
"FFFFFFFFFFFFFFFFFFFFFFFFFFFFFFFFFFFFFFFFFFFF    .jSSSSSSSFFFFFFFFFFFFFFFFFFFFFF     FFFFFFFFFFFFFFFFFFFFFFFFFFFFFFFFFFFFFFFFFFFF",
"FFFFFFFFFFFFFFFFFFFFFFFFFFFFFFFFFFFFFFFFFFF    .jSSSSSSSSFFFFFFFFFFFFFFFFFFFFFF     FFFFFFFFFFFFF4    FFFFFFFFFFFFFFFFFFFFFFFFFF",
"FFFFFFFFFFFFFFFFFFFFFFFFFFFFFFFF              .jSSSSSSSSSFFFFFFFFFFFFFFFFFFFFFF         FFFFFFFFFc     FFFFFFFFFFFFFFFFFFFFFFFFF",
"FFFFFFFFFFFFFFFFFFFFFFFFFFFFFFFF              .jSSSSSSSSFFFFFFFFFFFFFFFFFFFFFFF           FFFFFFFSj.    FFFFFFFFFFFFFFFFFFFFFFFF",
"FFFFFFFFFFFFFFFFFFFFFFFFFFFFFFFF               .jSFFFFFFFFFFFFFFFFFFFFFFFFFFFFF          +FFFFFFFSSj.    FFFFFFFFFFFFFFFFFFFFFFF",
"FFFFFFFFFFFFFFFFFFFFFFFFFFFFFFFF                .FFFFFFFFFFFFFFFFFFFFFFFFFFFFFF          9FFFFFFFSSSj.    FFFFFFFFFFFFFFFFFFFFFF",
"FFFFFFFFFFFFFFFFFFFFFFFFFFFFFFFFiiiiiiiiiiiit.    FFFFFFFFFFFFFFFFFFFFFFFFFFFF     8iiiilAFFFFFFFFSSSj.    FFFFFFFFFFFFFFFFFFFFF",
"FFFFFFFFFFFFFFFFFFFFFFFFFFFFFFFFSSSSSSSSSSSSSj.    FFFFFFFFFFFFFFFFFFFFFFFFFF    .jSSSSSSSFFFFFFFFSSSSj.    FFFFFFFFFFFFFFFFFFFF",
"FFFFFF FFFFFFFFFFFFFFFFFFFFFFFFFSSSSSSSSSSSSSSj.    FFFFFFFFFFFFFFFFFFFFFFFF    .jSSSSSSSSFFFFFFFFFSSSSj.    FFFFFFFFFFFFFFFFFFF",
"FFFF.    FFFFFFFFFFFFFFFFFFFFFFFSSSSSSSSSSSSSSSj.    FFFFFFFFFFFFFFFFFFFFFF    .jSSSSSSSSSFFFFFFFFFFSSSSu    FFFFFFFFFFFFFFFFFFF",
"FFFF=       FFFFFFFFFFFFFFFFFFFFSSSSSSSSSSSSSSSSj.    FFFFFFFFFF              .jSSSSSSSSSFFFFFFFFFFFFSSSi    FFFFFFFFFFFFFFFFFFF",
"FFFFg.        FFFFFFFFFFFFFFFFFFFFFFFFFFFFFFFSSSSj.    FFFFFFFF              .jSSSSFFFFFFFFFFFFFFFFFFFSSi    FFFFFFFFFFFFFFFFFFF",
"FFFFSc2        FFFFFFFFFFFFFFFFFFFFFFFFFFFFFFFSSSSj.    FFFFFF              .jSSSSFFFFFFFFFFFFFFFFFFFFFSi    FFFFFFFFFFFFFFFFFFF",
"FFFFSSSMe+      FFFFFFFFFFFFFFFFFFFFFFFFFFFFFFFSSSSj.    FFFF              .xSSSSFFFFFFFFFFFFFFFFFFFFFFF7    FFFFFFFFFFFFFFFFFFF",
"FFFFSSSSSCa*     FFFFFFFFFFFFFFFFFFFFFFFFFFFFFFFSSSSj.    FF    .5iiiiiiiiixSSSSFFFFFFFFFFFFFFFFFFFFFFFF     FFFFFFFFFFFFFFFFFFF",
"FFFFSSSSSSSSs    FFFFFFFFFFFFFFFFFFFFFFFFFFFFFFFFSSSSj.        .jSSSSSSSSSSSSSSFFFFFFFFFFFFFFFFFFFFFFFFF     FFFFFFFFFFFFFFFFFFF",
"FFFFFFSSSSSSS6    FFFFFFFFFFFFFFFFFFFFFFFFFFFFFFFFSSSSj.      .jSSSSSSSSSSSSSSFFFFFFFFFFFFFFFFFFFFFFFFFF     FFFFFFFFFFFFFFFFFFF",
"FFFFFFFFSSSSSNX    FFFFFFFFFFFFFFFFFFFFFFFFFFFFFFFFSSSSj.    .jSSSSSSSSSSSSSFFFFFFFFFFFFFFFFFFFFFFFFFFFF     FFFFFFFFFFFFFFFFFFF",
"FFFFFFFFFFSSSSu    FFFFFFFFFFFFFFFFFFFFFFFFFFFFFFFFFSSSj.    jSSSSSSSSSSSSSFFFFFFFFFFFFFFFFFFFFFFFFFFFFF     FFFFFFFFFFFFFFFFFFF",
"FFFFFFFFFFFFSSZ$    FFFFFFFFFFFFFFFFFFFFFFFFFFFFFFFFFSj.    sSSSSFFFFFFFFFFFFFFFFFFFFFFFFFFFFFFFFFFFFFFF     FFFFFFFFFFFFFFFFFFF",
"FFFFFFFFFFFFFSSf                  FFFFFFFFFFFFFFFFFFFF.   .jSSSSFFFFFFFFFFFFFFFFFFFFFFFFFFFFFFFFFFFFFFFF     FFFFFFFFFFFFFFFFFFF",
"FFFFFFFFFFFFFFSS>                  FFFFFFFFFFFFFFFFFF    .jSSSSFFFFFFFFFFFFFFFFFFFFFFFFFFFFFFFFFFFFFFFFF     FFFFFFFFFFFFFFFFFFF",
"FFFFFFFFFFFFFFSb*                   FFFFFFFFFFFFFFFF    .jSSSSFFFFFFFFFFFFFFFFFFFFFFFFFFFFFFFFFFFFFFFFFF     FFFFFFFFFFFFFFFFFFF",
"FFFFFFFFFFFFFFo                     FFFFFFFFFFFFFFF    .jSSSSFFFFFFFFFFFFFFFFFFFFFFFFFFFFFFFFFFFFFFFFFFF     FFFFFFFFFFFFFFFFFFF",
"FFFFFFFFFFFFF      .3iiiiiiiiii,    FFFFFFFFFFFFFF    .jSSSSFFFFFFFFFFFFFFFFFFFFFFFFFFFFFFFFFFFFFFFFFFFF     FFFFFFFFFFFFFFFFFFF",
"FFFFFFFFFFF       6NSSSSSSSSSSSi    FFFFFFFFFFFFF    .jSSSSFFFFFFFFFFFFFFFFFFFFFFFFFFFFFFFFFFFFFFFFFFFFF     FFFFFFFFFFFFFFFFFFF",
"FFFFF           ;cSSSSSSSSSSSSSi    FFFFFFFFFFFF    .jSSSSFFFFFFFFFFFFFFFFFFF           FFFFFFFFFFFFFFFF                FFFFFFFF",
"FFFFF         @dASSSSSSSSSSSSSSi    FFFFFFFFFFF    .jSSSSFFFFFFFFFFFFFFFFFFF              FFFFFFFFFFFFFF                 FFFFFFF",
"FFFFF       .rVSSSSSSSSSSSSSSSSw    FFFFFFFFFFF    5SSSSFFFFFFFFFFFFFFFFFFF              OFFFFFFFFFFFFFF                  FFFFFF",
"FFFFF      1MSSSSSSFFFFFFFFFFFF     FFFFFFFFFFF    iSSSFFFFFFFFFFFFFFFFFFF               9FFFFFFFFFFFFF                    FFFFF",
"FFFFFiiiiilSSSSSSFFFFFFFFFFFFFF     FFFFFFFFFFF    iSSFFFFFFFFFFFFFFFFFF     .5iiiiiiiiilAFFFFFFFFFFFF    .5iiiiiiiiii5.    FFFF",
"FFFFFSSSSSSSSSSSFFFFFFFFFFFFFFF     FFFFFFFFFFF    iSFFFFFFFFFFFFFFFFFF+    .jSSSSSSSSSSSSFFFFFFFFFFF    .jSSSSSSSSSSSSj.    FFF",
"FFFFFSSSSSSSSSFFFFFFFFFFFFFFFFF     FFFFFFFFFFF    yFFFFFFFFFFFFFFFFFFF:    rSSSSSSSSSSSSSFFFFFFFFFF    .jSSSSSSSSSSSSSS5    FFF",
"FFFFFSSSSSSSFFFFFFFFFFFFFFFFFFF     FFFFFFFFFFF    oFFFFFFFFFFFFFFFFFFFx.   .jSSSSSSSSSSSSFFFFFFFFF    .jSSSSSSSSSSSSSSSi    FFF",
"FFFFFSSSSSSFFFFFFFFFFFFFFFFFFFF     FFFFFFFFFFF     FFFFFFFFFFFFFFFFFFFSj.   .gSSSSSSSSSSFFFFFFFFF    .jSSSSSSSSSSSSSSSSi   oFFF",
"FFFFFFFFFFFFFFFFFFFFFFFFFFFFFFF     FFFFFFFFFFF     FFFFFFFFFFFFFFFFFFFSSj.    FFFFFFFFFFFFFFFFFF    .jSSSSFFFFFFFFFFFFSi   ,FFF",
"FFFFFFFFFFFFFFFFFFFFFFFFFFFFFFF     FFFFFFFFFFF     FFFFFFFFFFFFFFFFFFFSSSj.    FFFFFFFFFFFFFFFF    .jSSSSFFFFFFFFFFFFFFi   6FFF",
"FFFFFFFFFFFFFFFFFFFFFFFFFFFFFFF     FFFFFFFFFFF     FFFFFFFFFFFFFFFFFFFFSSSj.    FFFFFFFFFFFFFF    .jSSSSFFFFFFFFFFFFFFFz   hFFF",
"FFFFFFFFFFFFFFFFFFFFFFFFFFFFFFF     FFFFFFFFFFF     FFFFFFFFFFFFFFFFFFFFSSSSj.    FFFFFFFFFFFF    .jSSSSFFFFFFFFFFFFFFFFSq#0AFFF",
"FFFFFFFFFFFFFFFFFFFFFFFFFFFFFFF     FFFFFFFFFFF     FFFFFFFFFFFFFFFFFFFFFSSSSj.    FFFFFFFFFF    .jSSSSFFFFFFFFFFFFFFFFFSSSSSFFF",
"FFFFFFFFFFFFFFFFFFFFFFFFFFFFFFF     FFFFFFFFFFF     FFFFFFFFFFFFFFFFFFFFFFSSSSj.    FFFFFFFF    .jSSSSFFFFFFFFFFFFFFFFFFSSSSSFFF",
"FFFFFFFFFFFFFFFFFFFFFFFFFFFFFFF     FFFFFFFFFFF     FFFFFFFFFFFFFFFFFFFFFFFSSSSj.    FFFFFF    .jSSSSFFFFFFFFFFFFFFFFFFFFSSSSFFF",
"FFFFFFFFFFFFFFFFFFFFFFFFFFFFFFF                      FFFFFFFFFFFFFFFFFFFFFFFSSSSj.    FFFF    .jSSSSFFFFFFFFFFFFFFFFFFFFFSSSFFFF",
"FFFFFFFFFFFFFFFFFFFFFFFFFFFFFFF                       FFFFFFFFFFFFFFFFFFFFFFFSSSSj.    FF    .jSSSSFFFFFFFFFFFFFFFFFFFFFFFFFFFFF",
"FFFFFFFFFFFFFFFFFFFFFFFFFFFFFFF                        FFFFFFFFFFFFFFFFFFFFFFFheee5         .jSSSSFFFFFFFFFFFFFFFFFFFFFFFFFFFFFF",
"FFFFFFFFFFFFFFFFFFFFFFFFFFFFFF                          FFFFFFFFFFFFFFFFFFFFFF             .jSSSSFFFFFFFFFFFFFFFFFFFFFFFFFFFFFFF",
"FFFFFFFFFFFFFFFFFFFFFFFFFFFFF     5iiiiiiiiiiiiiiii5.    FFFFFFFFFFFFFFFFFFFF              ySSSSFFFFFFFFFFFFFFFFFFFFFFFFFFFFFFFF",
"FFFFFFFFFFFFFFFFFFFFFFFFFFFF    .jSSSSSSSSSSSSSSSSSSj.    FFFFFFFFFFFFFFFFFF               iSSSFFFFFFFFFFFFFFFFFFFFFFFFFFFFFFFFF",
"FFFFFFFFFFFFFFFFFFFFFFFFFFF    .jSSSSSSSSSSSSSSSSSSSSj.    FFFFFFFFFFFFFFFF    .yiiiiii,   iSSFFFFFFFFFFFFFFFFFFFFFFFFFFFFFFFFFF",
"FFFFFFFFFFFFFFFFFFFFFFFFFF    .jSSSSSSSSSSSSSSSSSSSSSSj.    FFFFFFFFFFFFFF    .jSSSSSSSi   iSFFFFFFFFFFFFFFFFFFFFFFFFFFFFFFFFFFF",
"FFFFFFFFFFFFFFFFFFFFFFFFF    .jSSSSSSSSSSSSSSSSSSSSSSSSj.    FFFFFFFFFFFF    .jSSSSSSSSi   7FFFFFFFFFFFFFFFFFFFFFFFFFFFFFFFFFFFF",
"FFFFFFFFFFFFFFFFFFFFFFFF    .jSSSSFFFFFFFFFFFFFFFFFFSSSSj.    FFFFFFFFFF    .jSSSSSSSSSi    FFFFFFFFFFFFFFFFFFFFFFFFFFFFFFFFFFFF",
"FFFFFFFFFFFFFFFFFFFFFFF    .jSSSSFFFFFFFFFFFFFFFFFFFFSSSSj.    FFFFFFFF    .jSSSSSSSSSSi    FFFFFFFFFFFFFFFFFFFFFFFFFFFFFFFFFFFF",
"FFFFFFFFFFFFFFFFFFFFFF    .jSSSSFFFFFFFFFFFFFFFFFFFFFFSSSSj.    FFFFFF    .jSSSSFFFFFFFu    FFFFFFFFFFFFFFFFFFFFFFFFFFFFFFFFFFFF",
"FFFFFFFFFFFFFFFFFFF      .jSSSSFFFFFFFFFFFFFFFFFFFFFFFFSSSSj.    FFFF    .jSSSSFFFFFFFFu    FFFFFFFFFFFFFFFFFFFFFFFFFFFFFFFFFFFF",
"FFFFFFFFFFFFFFFFFFF     .jSSSSFFFFFFFFFFFFFFFFFFFFFFFFFFSSSSj.    FF    .jSSSSFFFFFFFFFu    FFFFFFFFFFFFFFFFFFFFFFFFFFFFFFFFFFFF",
"FFFFFFFFFFFFFFFFFFF    .jSSSSFFFFFFFFFFFFFFFFFFFFFFFFFFFFSSSSj.        .jSSSSFFFFFFFFFFu    FFFFFFFFFFFFFFFFFFFFFFFFFFFFFFFFFFFF",
"FFFFFFFFFFFFFFFFFFF    ySSSSFFFFFFFFFFFFFFFFFFFFFFFFFFFFFFSSSSj.      .jSSSSFFFFFFFFFFFz     FFFFFFFFFFFFFFFFFFFFFFFFFFFFFFFFFFF",
"FFFFFFFFFFFFFFFFFFF5   iSSSFFFFFFFFFFFFFFFFFFFFFFFFFFFFFFFFSSSSj.    .jSSSSFFFFFFFFFFFFSqX    FFFFFFFFFFFFFFFFFFFFFFFFFFFFFFFFFF",
"FFFFFFFFFFFFFFFFFFFi   iSSFFFFFFFFFFFFFFFFFF   FFFFFFFFFFFFFSSSSu    jSSSSFFFFFFFFFFFFFSSb.    FFFFFFFFFFFFFFFFFFFFFFFFFFFFFFFFF",
"FFFFFFFFFFFFFFFFFFFi   iSFFFFFFFFFFFFFFF       oFFFFFFFFFFFFFSSSi   4SSSSFFFFFFFFFFFFFFSSSj.    FFFFFFFFFFFFFFFFFFFFFFFFFFFFFFFF",
"FFFFFFFFFFFFFFFFFFFi   7FFFFFFFFFFFF           <FFFFFFFFFFFFFFSSi   iSSSFFFFFFFFFFFFFFFFSSSj.    FFFFFFFFFFFFFFFFFFFFFFFFFFFFFFF",
"FFFFFFFFFFFFFFFFFFF     FFFFFFFFFFF           -mFFFFFFFFFFFFFFFSi   iSSFFFFFFFFFFFFFFFFFSSSSj.    FFFFFFFFFFFFFFFFFFFFFFFFFFFFFF",
"FFFFFFFFFFFFFFFFFFF     FFFFFFFFFFO       O1pnSSFFFFFFFFFFFFFFFF7   iSFFFFFFFFFFFFFFFFFFFFSSSj.    FFFFFFFFFFFFFFFFFFFFFFFFFFFFF",
"FFFFFFFFFFFFFFFFFFF     FFFFFFFFFF%    *ucZSSSSSFFFFFFFFFFFFFFFF    7FFFFFFFFFFFFFFFFFFFFFSSSSj.    FFFFFFFFFFFFFFFFFFFFFFFFFFFF",
"FFFFFFFFFFFFFFFFFFF     FFFFFFFFFFx    .jSSSSSSSFFFFFFFFFFFFFFFF     FFFFFFFFFFFFFFFFFFFFFFSSSSj.    FFFFFFFFFFFFFFFFFFFFFFFFFFF",
"FFFFFFFFFFFFFFFFFFF     FFFFFFFFFFSj.   .jSSSSSFFFFFFFFFFFFFFFFF     FFFFFFFFFFFFFFFFFFFFFFFSSSSj.    FFFFFFFFFFFFFFFFFFFFFFFFFF",
"FFFFFFFFFFFFFFFFFFF    .FFFFFFFFFFSSj.   .jSSFFFFFFFFFFFFFFFFFFF     FFFFFFFFFFFFFFFFFFFFFFFFSSSSj.    FFFFFFFFF  FFFFFFFFFFFFFF",
"FFFFFFFFFFFFFFFFFFF&   %FFFFFFFFFFSSSj.     FFFFFFFFFFFFFFFFFFFF     FFFFFFFFFFFFFFFFFFFFFFFFFSSSSj.    FFFFFFF   FFFFFFFFFFFFFF",
"FFFFFFFFFFFFFFFFFFF1   4FFFFFFFFFFFSSSj.    FFFFFFFFFFFFFFFFFFFF     FFFFFFFFFFFFFFFFFFFFFFFFFFSSSSj.    FFFF     FFFFFFFFFFFFFF",
" FFFFFFFFFFFFFFFFFFk   jFFFFFFFFFFFSSSSj     FFFFFFFFFFFFFFFFFFF     FFFFFFFFFFFFFFFFFFFFFFFFFFFSSSSj.    F       FFFFFFFFFFFFFF",
"  FFFFFFFFFFFFFFFFFSq#0AFFFFFFFFFFFFSSSS8    FFFFFFFFFFFFFFFFFFF     FFFFFFFFFFFFFFFFFFFFFFFFFFFFSSSSj.         #dFFFFFFFFFFFFFF",
"   FFFFFFFFFFFFFFFFSSSSSFFFFFFFFFFFFFSSSi    FFFFFFFFFFFFFFFFFFF     FFFFFFFFFFFFFFFFFFFFFFFFFFFFFSSSSj.      .rVSFFFFFFFFFFFFFF",
"    FFFFFFFFFFFFFFFSSSSSFFFFFFFFFFFFFFSSi    FFFFFFFFFFFFFFFFFFF     FFFFFFFFFFFFFFFFFFFFFFFFFFFFFFSSSSj.    1MSSSFFFFFFFFFFFFFF",
".    FFFFFFFFFFFFFFFSSSSFFFFFFFFFFFFFFFSi    FFFFFFFFFFFFFFFFFFF              FFFFFFFFFFFFFFFFFFFFFFSSSS5   &SSSSSFFFFFFFFFFFFFF",
"j.    FFFFFFFFFFFFFFSSSFFFFFFFFFFFFFFFFF7    FFFFFFFFFFFFFFFFFFF               FFFFFFFFFFFFFFFFFFFFFFSSSi   wSSSSSFFFFFFFFFFFFFF",
"Sj.    FFFFFFFFFFFFFFFFFFFFFFFFFFFFFFFFF     FFFFFFFFFFFFFFFFFFF                FFFFFFFFFFFFFFFFFFFFFFSSi   iSSSFFFFFFFFFFFFFFFF",
"SSj.    FFFFFFFFFFFFFFFFFFFFFFFFFFFFFFFF     FFFFFFFFFFFFFFFFFF                  FFFFFFFFFFFFFFFFFFFFFFSi   iSFFFFFFFFFFFFFFFFFF",
"SSSj.    FFFFFFFFFFFFFFFFFFFFFFFFFFFFFFF     FFFFFFFFFFFFFFFFF    .5iiiiiiii5.    FFFFFFFFFFFFFFFFFFFFFF1    FFFFFFFFFFFFFFFFFFF",
"SSSSj.    FFFFFFFFFFFFFFFFFFFFFFFFFFFFFF                         .jSSSSSSSSSSj.    FFFFFFFFFFFFFFFFFFFFF     FFFFFFFFFFFFFFFFFFF",
"FSSSSj.    FFFFFFFFFFFFFFFFFFFFFFFFFFFFF                        .jSSSSSSSSSSSSj.    FFFFFFFFFFFFFFFFFFFF     FFFFFFFFFFFFFFFFFFF",
"FFSSSSj.   FFFFFFFFFFFFFFFFFFFFFFFFFFFFF                        .jSSSSSSSSSSSSSj.    FFFFFFFFFFFFFFFFFFF     FFFFFFFFFFFFFFFFFFF",
"FFFSSSS8    FFFFFFFFFFFFFFFFFFFFFFFFFFFF                         .jSSSSSSSSSSSSSj.    FFFFFFFFFFFFFFFFFF     FFFFFFFFFFFFFFFFFFF",
"FFFFSSSi    FFFFFFFFFFFFFFFFFFFFFFFFFFF     8iiiiiiiiiiiiiiii5.   .FFFFFFFFFFSSSSj.          FFFFFFFFFFFa    FFFFFFFFFFFFFFFFFFF",
"FFFFFSSi    FFFFFFFFFFFFFFFFFFFFFFFFFF    .jSSSSSSSSSSSSSSSSSSj.    FFFFFFFFFFSSSSj.           FFFFFFFFFDDDDDFFFFFFFFFFFFFFFFFFF",
"FFFFFFSi    FFFFFFFFFFFFFFFFFFFFFFFFF    .jSSSSSSSSSSSSSSSSSSSSj.    FFFFFFFFFFSSSSj          +FFFFFFFFFDDDDDFFFFFFFFFFFFFFFFFFF",
"FFFFFFFu    FFFFFFFFFFFFFFFFFFFFFFFF    .jSSSSSSSSSSSSSSSSSSSSSSj.    FFFFFFFFFFSSSS5         9FFFFFFFFFDDDDDFFFFFFFFFFFFFFFFFFF",
"FFFFFFFu    FFFFFFFFFFFFFFFFFFFFFFF    .jSSSSSSSSSSSSSSSSSSSSSSSSj.    FFFFFFFFFFSSSSziiiiiiilAFFFFFFFFFFDDDFFFFFFFFFFFFFFFFFFFF",
"FFFFFFFu    FFFFFFFFFFFFFFFFFFFFFF    .jSSSSFFFFFFFFFFFFFFFFFFSSSSj.    FFFFFFFFFFSSSSSSSSSSSSSFFFFFFFFFFFFFFFFFFFFFFFFFFFFFFFFF",
"FFFFFFFu    FFFFFFFFFFFFFFFFFFFFF    .jSSSSFFFFFFFFFFFFFFFFFFFFSSSSj.    FFFFFFFFFFSSSSSSSSSSSSFFFFFFFFFFFFFFFFFFFFFFFFFFFFFFFFF",
"FFFFFFFu    FFFFFFFFFFFFFFFFFFFF    .jSSSSFFFFFFFFFFFFFFFFFFFFFFSSSSj.    FFFFFFFFFFSSSSSSSSSSSFFFFFFFFFFFFFFFFFFFFFFFFFFFFFFFFF",
"FFFFFFFu    FFFFFFFFFFFFFFFFFFF    .jSSSSFFFFFFFFFFFFFFFFFFFFFFFFSSSSj.    FFFFFFFFFFFSSSSSSSSFFFFFFFFFFFFFFFFFFFFFFFFFFFFFFFFFF",
"FFFFFFFu    FFFFFFFFFFFFFFFFFF    .jSSSSFFFFFFFFFFFFFFFFFFFFFFFFFFSSSSj.    FFFFFFFFFFFFFFFFFFFFFFFFFFFFFFFFFFFFFFFFFFFFFFFFFFFF",
"FFFFFFFv     FFFFFFFFFFFFFFFF    .jSSSSFFFFFFFFFFFFFFFFFFFFFFFFFFFFSSSSj.    FFFFFFFFFFFFFFFFFFFFFFFFFFFFFFFFFFFFFFFFFFFFFFFFFFF",
"FFFFFFFSj.    FFFFFFFFFFFFFF    .jSSSSFFFFFFFFFFFFFFFFFFFFFFFFFFFFFFSSSSj.    FFFFFFFFFFFFFFFFFFFFFFFFFFFFFFFFFFFFFFFFFFFFFFFFFF",
"FFFFFFFSSj.    FFFFFFFFFFFF    .jSSSSFFFFFFFFFFFFFFFFFFFFFFFFFFFFFFFFSSSSj.    FFFFFFFFFFFFFFFFFFFFFFFFFFFFFFFFFFFFFFFFFFFFFFFFF",
"FFFFFFFSSSj.    FFFFFFFFFF    .jSSSSFFFFFFFFFFFFFFFFFFFFFFFFFFFFFFFFFFSSSSj.    FFFFFFFFFFFFFFFFFFFFFFFFFFFFFFFFFFFFFFFFFFFFFFFF",
"FFFFFFFFSSSj.                .jSSSSFFFFFFFFFFFFFFFFFFFFFFFFFFFFFFFFFFFFSSSSj.    FFFFFFFFFFFFFFFFFFFFFFFFFFFFFFFFFFFFFFFFFFFFFFF",
"FFFFFFFFSSSSj.              .jSSSSFFFFFFFFFFFFFFFFFFFFFFFFFFFFFFFFFFFFFF7iii5                  FFFFFFFFFFFFFFFFFFFFFFFFFFFFFFFFF",
"FFFFFFFFFSSSSj.            .jSSSSFFFFFFFFFFFFFFFFFFFFFFFFFFFFFFFFFFFFFF                         FFFFFFFFFFFFFFFFFFFFFFFFFFFFFFFF",
"FFFFFFFFFFSSSS5            .jSSSFFFFFFFFFFFFFFFFFFFFFFFFFFFFFFFFFFFFFF                           FFFFFFFFFFFFFFFFFFFFFFFFFFFFFFF",
"FFFFFFFFFFFSSSi   :iiiie+   .jSFFFFFFFFFFFFFFFFFFFFFFFFFFFFFFFFFFFFFF                             FFFFFFFFFFFFFFFFFFFFFFFFFFFFFF",
"FFFFFFFFFFFFSSi   iSSSSSb.   .FFFFFFFFFFFFFFFFFFFFFFFFFFFFFFFFFFFFFF    .5iiiiiiiiiiiiiiiiiii5.    FFFFFFFFFFFFFFFFFFFFFFFFFFFFF",
"FFFFFFFFFFFFFSi   iSSSSSSj.    FFFFFFFFFFFFFFFFFFFFFFFFFFFFFFFFFFFF    .jSSSSSSSSSSSSSSSSSSSSSj.    FFFFFFFFFFFFFFFFFFFFFFFFFFFF",
"FFFFFFFFFFFFFF7   iSSSSSSSj.    FFFFFFFFFFFFFFFFFFFFFFFFFFFFFFFFFF    .jSSSSSSSSSSSSSSSSSSSSSSSj.    FFFFFFFFFFFFFFFFFFFFFFFFFFF",
"FFFFFFFFFFFFFF    wSSSSSSSSj.    FFFFFFFFFFFFFFFFFFFFFFFFFFFFFFFF    .jSSSSSSSSSSSSSSSSSSSSSSSSSj.    FFFFFFFFFFFFFFFFFFFFFFFFFF",
"FFFFFFFFFFFFFFFFFFFFFFFFFSSSj.    FFFFFFFFFFFFFFFFFFFFFFFFFFFFFF    .jSSSSSSSSSSSSSSSSSSSSSSSSSSSj.    FFFFFFFFFFFFFFFFFFFFFFFFF",
"FFFFFFFFFFFFFFFFFFFFFFFFFSSSSj.               FFFFFFFFFFFFFFFFF$   .jSSSSFFFFFFFFFFFFFFFFFFFFFSSSSj.           FFFFFFFFFFFFFFFFF",
"FFFFFFFFFFFFFFFFFFFFFFFFFFSSSSj.                FFFFFFFFFFFFFFF6  .jSSSSFFFFFFFFFFFFFFFFFFFFFFFSSSSj.           FFFFFFFFFFFFFFFF",
"FFFFFFFFFFFFFFFFFFFFFFFFFFFSSSSj.              +FFFFFFFFFFFFFFFB0<xSSSSFFFFFFFFFFFFFFFFFFFFFFFFFSSSSj.           FFFFFFFFFFFFFFF",
"FFFFFFFFFFFFFFFFFFFFFFFFFFFFSSSSj              9FFFFFFFFFFFFFFFSSSSSSSFFFFFFFFFFFFFFFFFFFFFFFFFFFSSSSj.           FFFFFFFFFFFFFF",
"FFFFFFFFFFFFFFFFFFFFFFFFFFFFFSSSSxiiiiiiiiiiiilAFFFFFFFFFFFFFFFSSSSSSFFFFFFFFFFFFFFFFFFFFFFFFFFFFFSSSSxiiiiii5.    FFFFFFFFFFFFF",
"FFFFFFFFFFFFFFFFFFFFFFFFFFFFFFSSSSSSSSSSSSSSSSSSFFFFFFFFFFFFFFFSSSSSFFFFFFFFFFFFFFFFFFFFFFFFFFFFFFFSSSSSSSSSSSj.    FFFFFFFFFFFF",
"FFFFFFFFFFFFFFFFFFFFFFFFFFFFFFFSSSSSSSSSSSSSSSSSFFFFFFFFFFFFFFFFSSFFFFFFFFFFFFFFFFFFFFFFFFFFFFFFFFFFSSSSSSSSSSSj.    FFFFFFFFFFF",
"FFFFFFFFFFFFFFFFFFFFFFFFFFFFFFFFSSSSSSSSSSSSSSSSFFFFFFFFFFFFFFFFFFFFFFFFFFFFFFFFFFFFFFFFFFFFFFFFFFFFFSSSSSSSSSSSj.    FFFFFFFFFF",
"FFFFFFFFFFFFFFFFFFFFFFFFFFFFFFFFFFSSSSSSSSSSSSSFFFFFFFFFFFFFFFFFFFFFFFFFFFFFFFFFFFFFFFFFFFFFFFFFFFFFFFFSSSSSSSSSSj.    FFFFFFFFF",
"FFFFFFFFFFFFFFFFFFFFFFFFFFFFFFFFFFFFFFFFFFFFFFFFFFFFFFFFFFFFFFFFFFFFFFFFFFFFFFFFFFFFFFFFFFFFFFFFFFFFFFFFFFFFFFSSSSj.    FFFFFFFF",
"FFFFFFFFFFFFFFFFFFFFFFFFFFFFFFFFFFFFFFFFFFFFFFFFFFFFFFFFFFFFFFFFFFFFFFFFFFFFFFFFFFFFFFFFFFFFFFFFFFFFFFFFFFFFFFFSSSSj.    FFFFFFF",
"FFFFFFFFFFFFFFFFFFFFFFFFFFFFFFFFFFFFFFFFFFFFFFFFFFFFFFFFFFFFFFFFFFFFFFFFFFFFFFFFFFFFFFFFFFFFFFFFFFFFFFFFFFFFFFFFSSSSj.    FFFFFF"
};
