/* XPM */
static char *_aa876523edb4023a96e335aab9f8bad[] = {
/* columns rows colors chars-per-pixel */
"128 112 70 1 ",
"  c #5B472B",
". c #6F5743",
"X c #5F4323",
"o c #67533F",
"O c #5F4B37",
"+ c #533F1F",
"@ c #6B4727",
"# c #774F2B",
"$ c #675333",
"% c #875733",
"& c #775F4B",
"* c #7B634F",
"= c #775F3F",
"- c #373F27",
"; c #836B4B",
": c #434343",
"> c #836B57",
", c gray31",
"< c gray28",
"1 c gray34",
"2 c gray39",
"3 c #8B735B",
"4 c #7F532F",
"5 c gray75",
"6 c #BFA78F",
"7 c #070707",
"8 c #5B6347",
"9 c #3F472B",
"0 c #AF977F",
"q c #777777",
"w c #6F7357",
"e c #8B8B8B",
"r c #9B7F6B",
"t c #8F5F37",
"y c #53573B",
"u c #9F876F",
"i c #8F7753",
"p c #838383",
"a c #937B63",
"s c #9F9F9F",
"d c #939393",
"f c #A78F77",
"g c #979797",
"h c #B79F87",
"j c #CBCBCB",
"k c #A7A7A7",
"l c #B37347",
"z c #AB6F43",
"x c #332B13",
"c c #272727",
"v c #2B230F",
"b c #2F2F2F",
"n c #3F2F17",
"m c #1B1B1B",
"M c #232323",
"N c #43331B",
"B c #1F170B",
"V c #13230B",
"C c #0B0B0B",
"Z c gray23",
"A c black",
"S c #131313",
"D c #373737",
"F c #170F07",
"G c #533F2F",
"H c #574333",
"J c #0B1707",
"K c #4F3B23",
"L c #4B371B",
"P c #5B5B5B",
/* pixels */
"CCCCCCCCCCCCCCCCCCCCCCCCCCCCCCCCCCCCCCCCCCCCCCCCCCCCCCCCCCCCCCCCCCCCCCCCCCCCCCCCCCCCCCCCCCCCCCCCCCCCCCCCCCCCCCCCCCCCCCCCCCCCCCCC",
"mBBBBSmmBmmmmBmBmmmBBBBBmBBBBmmBBmmBmBmBmmmBBBmmmmmBmmmBBSBBmBmBmmmBBmmBmBBmmBmmBmBBmBmBmmmBBBBBmBBBBSmmBmmmmBmBmmmBBBBBmBBBBSmm",
"BBMmSBmMBBMmmmBMmMmmBMMBBBMmMmmmmMmBmmBMmMmmBMMMMMmmmmmmBBMmMmBMmMmmBBmMmBBBvvmMmMMmmmBMmMmmBMMBBBMmmmmMBBMmmmBMmMmmBMMBBBMmSBmM",
"MMMvMMMMvvMvvvvMDDMMvMMvMMMvvvMMMMvvvvvMDDMMvMMMMMMMMMvvvvvvvvvMDDMMvMMvvMMMvvvvvvvvvvvMDDMMvMMvMMMvMMMMvvMvvvvMDDMMvMMvMMMvMMMM",
"nxmvNxcMvxccvxvDvMDMvxxxnxmvvMMMvvMcvxvDvMDMvxxxvMMMxxvvvMncvxvDvMDMvxxcvxccxxxvxcccvxvDvMDMvxxxnxmvnncMvxccvxvDvMDMvxxxnxmvNxcM",
"nncMbxcMvxcMvvZvvvcbvcxxnncMvvvMvxcMvvZvvvcbvcxcvxvvvvvxvvcMvvZvvvcbvcxcvxcMxxvxxccxvvZvvvcbvcxxnncMcxcMvxcMvvZvvvcbvcxxnncMbxcM",
"cbcxvcbvxcxxxZvxZbcxZxxncbcxbcxvxNvxxZvxZbcxZxxcVbVcxcbMvbvxxZvxZbcxZxxxbxxxxcbccvcxxZvxZbcxZxxncbcxccvcvcxxxZvxZbcxZxxncbcxvcbv",
"cxxvxxcvxvcxZxNmPZmccZcncxxvxxvvcMcxZxNmPZmccZccccccxcbccccxZxNmPZmccZcvccvcccxxccccZxNmPZmccZcncxxvMbcbbxcxZxNmPZmccZcncxxvxxcv",
"xxvxxNvvvxxcmVxAcmAxxmxxxxvxcbcxccccmVxAcmAxxmxxvccbccxNxcccmVxAcmAxxmxvxxxNcVxvMccvmVxAcmAxxmxxxxvxcccnxvvcmVxAcmAxxmxxxxvxxNvv",
"xvxxxxvxxccvxCxmAAmcBccnxvxxcbxxvxxvxCxmAAmcBccvcbcNxccbxccvxCxmAAmcBccMxxxNxccvvccvxCxmAAmcBccnxvxxxvcvvvxvxCxmAAmcBccnxvxxxxvx",
"xvxvcxcxxxvxVxCccxbCxcccxvxvxvxNxcvxVxCccxbCxccbcbxxxcNNccxxVxCccxbCxccvcxccMbcvxxncVxCccxbCxcccxvxvcxcxxxvxVxCccxbCxcccxvxvcxcx",
"xxcMcvcxxcvcNvxCxcCxxxvcxxcMvxcVvcbcNvxCxcCxxxvxvvcxxcbcxcxcNvxCxcCxxxvcxvcxcxccxcccNvxCxcCxxxvcxxcMcvcxxcvcNvxCxcCxxxvcxxcMcvcx",
"xcxccxvxxvvxxnvvCCcxcvvcxcxccVxvxcxxxnvvCCcxcvvxcccnxNbccccxxnvvCCcxcvvxvbcvMMccvxxcxnvvCCcxcvvcxcxccxvxxvvxxnvvCCcxcvvcxcxccxvx",
"vxvxbcxcvcvvVvxcxccvcxcxvxvxxxcNvxccVvxcxccvcbcxxvxcxNxcccccVvxcxccvcxvcbxxVcvccvxccVvxcxccvcxcxvxvxbcxcvcvvVvxcxccvcxcxvxvxbcxc",
"cxxvbbcncxxcbcvvvvxvbxMxcxxvcxvxxcxxbcvvvvxvbccbcxcxvcxcNccNbcvvvvxvbcxNcbccbcccvxccbcvvvvxvbxMxcxxvbbcncxxcbcvvvvxvbxMxcxxvbbcn",
"BBBmmBBvBBBvBBBBBBBBmBmmBBBmmBBBmvBBBBBBBBBBmBmmBvmmJmBmmBmBBBBBBBBBmmBvBBmmmBmmBBmmBBBBBBBBmBmmBBBmmBBvBBBvBBBBBBBBmBmmBBBmmBBv",
"vnnNBnnnvxnxxxvnvvnvxNNGvnnNFNvvvvmvxxvnvvnvxvnvvxnGFnvLvvvnxxvnvvnvxxvnNNnKBNvnvvnvxxvnvvnvxnxnNnNGFHnnNxnxxxvnvvnvxNNGvnnNBnnn",
"L X%vO L L GG+LG N DNo% L X%BocNxNvNvGNLL.LL nONGL *Bonn#nGGbbGo LNGG+LL@@X>v$LG N DNo% L X% GGL   .B; Lo  GG n XGGLNo% L X%vO L",
"+  .vO@ LGGOG G LN LL = +  .SonDDLcDcGLNL# NGn LGNo.B.NL%oL nLGG.GNL  Ln#@ &v.G LN LL = +  . NLXL  .B&  oLoGGGn @ GGL = +  .vO@ ",
"GOG%v$ Ln+L L L LL  + =XGOG%B&nGnGcNvGNNL LN+LXXXL *B,GL =N+LGGGoOGL.oGLOGo>v.L LL  + =XGOG%GNL L+ oB&@OoLGGGGv   GG+ =XGOG%v$ L",
"L Gov$ GNLL@L LLLLGGXX%XL GoBovNvGnnnGNNGGGNLL L+G *voGNL LL NGG .L O.GG  @*v.LLLLGGXX%XL GoLNL+XL .v&@o.GNoL@vo  GLXX%XL Gov$ G",
" XX v$ LLNLGGLn LLLGGG%  XX S,cNnGvNLLN L  LGL Lo  ;B.LNxL GOGGG  GL OON  @=vOn LLLGGG%  XX +L+++G oB.@   G Gox%  NNGG%  XX v$ L",
"#+ Gv&OGGGDGGGNGGNGGN % #+ GBovNNncNGGNOG  NLL@L@  ;B=LLLn  LGLLL.GnHG.GLG#&voNGGNGGN % #+ GGX L+L OB.ooo L#@%B.  G N % #+ Gv&OG",
"#X$ v. L   G GN GLG L .@#X$ BoNNLvnDLGNOL LNLL L   *BO@GLN+$XX+LL#XXXGGoGG@.voN GLG L .@#X$ GGG+ L OvoOoo#L  on.@@GGL .@#X$ v. L",
"@   v$XXG G   xOGN LLG.o@   B1cn nnDnGGGL LNLL#N N.*BoG@NLN  GL L LN+XL  GG*v.xOGN LLG.o@    L X GG.v.o#@@L  @GO.@G LG.o@   v$XX",
" . ov&LGGoG LGG LL L  o. . oBonbOnnNN$NGLoLLLL.L Go;B.G# LLXL LGLL LXNGL   >voG LL L  o. . oGLL++ GOB& . XL$GON.# L   o. . ov&LG",
"%; #B=LnL G@XLG LLGN.L @%; #BonnLNxGx LGL  NLGOn   ;Bo++ .N GOGLN   NGGG#X &vOG LLGN.L @%; #LGN+LXX.B&OO. NOO.L@@@X@.L @%; #B=Ln",
".* $v.NL L #LLGoLG L X ..* $B,nNNnNNN L X@LLNGOLXX ;BOG  ..LXXXLNLX#LLGN#LN&vOGoLG L X ..* $GGG Go .B&@4  LOO&n.O    X ..* $v.NL",
";%*.v$GGG X@  GOGLGGOOG%;%*.BoNGNNNNNLGGL +nLG    +;BoLG@G.n#LLLNG@@@X@ X+L&v.GOGLGGOOG%;%*. GL GG .v&o.+#. .OGO.oG$OOG%;%*.v$GG",
"%%;%v$G N+X  GL  GGG.Oo%%%;%B.nGLxLNGOGG+$LDGG G  G*v.GNXX@XLNG.G L %X@#X  &voL  GGG.Oo%%%;% X@ LGG.v.oo.. G.G +=++ .Oo%%%;%v$G ",
".*>ov.LGGGG@LLG  GGG. X=.*>oSonLGnNGN XLL +GL #X  @;v. n++##++LGGLL * +  X.ovOG  GGG. X=.*>oXX.GLXL.v. @ #+ .L G.GG . X=.*>ov.LG",
".*;.v.X  G.@     XX+.@@ .*;.BoNG vNGGoGOGOGGNoG+  o*B.OGGGGoN  N$GGG #  OL.>v.   XX+.@@ .*;. G.G   .v.# o&  O  GOOG .@@ .*;.v.X ",
"*=%&B$L @X.  XX   ++ X#+*=%&BoNGGnLLLo GLGGGn.GNXLo;BO + N . GOLL@ GG&oG  L;v.X   ++ X#+==%& XX@X $Ox&o@#=  @  X G X X#+*=%&B$L ",
".*=.B.L @G@XX+  + $LXX@ .*=.BoNLLvLnGOo G N+N.L X#X;Bo .GGL =LLLL#LL@ &GGGG&v$  + $LXX@ ;*=.  G@@@ Ox&..O&4#  .L# @XXX@ .*=.B.L ",
"o.*.B&G  X#X   @G   L   o.*.BONXGvDNn.OG .N L.L    ;BoLL. LL# N L o GHH.GG .v. @G   L   =i*. .G    ox&.# %@@Go.N.  GL   o.*.B&G ",
" o*oB. GOGoo +X@L4XXL    o*oB,NGOvNLGG  G.nGG+NGOOG>BOnL @XLN*<G GO.n L $XX.v$X@L4XXL    &*o .L GL#=x& # .#  G&G.< GL    o*oB. G",
"@G%oB.  oG.     L# .G LX@G%oBoNGonGGLO   <NG NGL .G3B.nGGL LL  GoLL.LOL =L &v.  L# .G LX@G%o  L  LL=x&G; ..G<O*GOOG G LX@G%oB.  ",
"oO&#v.oG@L o. L X X  GLXoO&#BONN cDNN.L LGLn$NLL $L3v.n NNLGLX#L# GooGGL@#X=x.L X X  GLXoO&#L LG LXtv&G;oo% OO&GGoGG GLXoO&#v.oG",
"$G>ov. G.   . G L L LLL+$G>ovONGGnGnL#GG G LX NG L ;BON L NNo++@XoGG.G@ L#X=x.G L L LLL+$G>oL@GG L@*v* .. % .#%LX.NGLLL+$G>ov. G",
"@L*.v.L  OL   oGL LoLLLL@L*.BoNnOnNNG. LGLLGG+NG L 3FONGGL@L. X#L. X#.X@X@X=v.oGL LoLLLL@L*.L LL@LO>x&G.$+# ##% L.GGLLLL@L*.v.L ",
"  ..v.GL  L#  @ X X#+LGL  ..monn Nnn . nGOGGGGGGGGL;vONGGGn L$X GL LL. GG @.v.@ X X#+LGL  ..  GGoOo>v&X.OGo*..& X   +LGL  ..v.GL",
"@ @#v$$+ LL $L    @#+XGG@ @#vODv.NnLL= L .L OGNGGL#;x*NNNGGGLL$+G+L LG GG  >xO    @#+XGG@ @## L#.LO>v=X4LO.%#.&oX@ G+XGG@ @#v$$+",
"GG @v$%L L  XXXXXXX@@  LGG @vonN cNGG=+LX% L@@L GG.*B.#X+GGnN L  #LL GGoOLG3v.XXXXX@@  LGG @##G . L>v&G%# # $ =.L. L@  LGG @v$%L",
"OGO x$@GG  L+X+   L G LLOGO voNNDnDnG.L NG N  L   .*BoL++#oGGGL x#Xn# L..LX&v.+   L G LLOGO %@G o  tx& %%o  +..#L  LG LLOGO x$@G",
"   Ln$  L  L G    L   X    LBoNDGN vL#GG+GGGG ++GG.=BoLLLLLoGLn LnonOGGn% L.vo    L   X    L*@@X.GG>x= &@%#$ %@#N. X  X    Ln$  ",
" N$Gx.  L GLoGL LoGO. oX N$GB1cGGnGnL XL  GLL  + L#=FOnGnGOH.NLv NLXn LLG L=xoL LoGO. oX N$G*.  . Nix& .G .#X#@# @  . oX N$Gx.  ",
" GG x.  N$L+#LLGG@G  L.L GG BoNN<nGLNO XXXLLX+L LX#=FOLNn GL  NGN%x.LO G OG.xOLGG@G  L.L GG ==   G+>v& .  #$X$G.L@ + L.L GG x.  ",
"OoO x.+ G N  X GGXL+$G@@OoO SonGGNNnG.OGL@NL  G LX#oBONNN+LLX##LG    GO .@@=v. GGXL+$G@@.oo .i##  Gav=X$+ .O @X#L $N$G@@OoO x.+ ",
"G GGx;L ++LLXX GXXn$L  +G GGB1NNGNN n%  LGnGN LODG .B=@X+nLLOGu0k0uGO L +X@=v. GXXn$L  +. .G.3##@X >v=X@@@.  oXo # nL  +G GGx;L ",
"G GNx*n  LLOL   L + L  LG GNB&nLLNG N*@XL N+N L LOG&v&+LL#X,2s>>B>>s2,X#LL &v.  L + L  Lo oN$;# $ L*v&Go% $#L4X% O.nL  LG GNx*n ",
"+HOox>LG NG LGGGLG    #L+HOoB.LGGnL GO.LGOGGGG+GG G*B&LL<exBq29ScS92qBxe<LL&voGGLG    #L+=.o.==+ .Ltv&G.#4#%@@L . .L  #L+HOox>LG",
"NGHOv;+ GL  LLoGN+ +X+ GNGHOB.GGGLGOG.oG .GL   LGG *B=X.p29wSA:bpb:ASw92p.X=vOoGN+ +X+ GN##o *.X G .v&X ##.%@#X+% . X+ GNGHOv;+ ",
"LGGLx&OOGGN#LN#LGL   GGLLGGLBoDGGLNon*GL  ++N LL   *B&bMA,PMMVM,S,MVMMP,AMb&vO#LGL   GGLLGGLG.#.G @Ox&+X##$. %@  =%  GGLLGGLx&OO",
"L G+x*   G .GL& G L  G @L G+BoGDGNN+L&GL .NoG+LLG  *B.bVS7SSMxM,M,MxMSS7SVb.vO& G L  G @L G++## GG .v;L%.. .#$   ..  G @L G+x*  ",
"  GGx=X OL   L.GGL G G L  GGB.GNGNNLL; No NoNGG++ +;B=,cb:Bx2wedfdew2xB:bc,=vO.GGL G G L  GG .G#LXX.x*G %; O .#$$.@  G L  GGx=X ",
" L Lx.$GoN   + G L OGG L L LB1Gx LL G*GLG NoNGL Go *BMb81DMb2u65556u2bMD18bMv$ G L OGG L L L  L%XX $v>L %; oo.#X#X  GG L L Lx.$G",
"GGGGF GGGGG-:GG:Z<:GG:GGGGGG:<:G:::GG::GG::<::GGG::<:MDBVbb2r056f650r2bbVBDM:-GGZ::G::GGG::::GG: <GZ:::HGGG:: GGGGG-G:GGGGGGF GG",
"xvxxmxvxxcccbcccxbcvxccnxvxxcbxxvxxxbccvcbcNxccvcbcNxc,:SSo6550rhr0556oSS:,cxccvvccvxccvxcbNvcMcxbcvxvcvvvxvcxvxxcccxccnxvxxmxvx",
"cbcxcxcxxcxxxvvxZbcxxxxncbcxbcxvxNvcxvvxZbcxxcbcVbVcxJM,MMxbABBB:BBBAbxMM,MJxcbccvcxxvvxZbcxxxbcbbxbccvcvcxxxvvxZbcxxxxncbcxcxcx",
"cxxvcvcxxvccVxNmPZmccccncxxvxxvvcMcvVxNmPZmcccbcccccxcbbSVMSMSAq5qASMSMVSbbcccxxccccVxNmPZmccxnxccMcMbcbbxcxVxNmPZmccccncxxvcvcx",
"xxvxcxvxxxxVcVxAcmAxxcxxxxvxcbcxcccxcVxAcmAxxcxxvccbcNSMMM2w89g6j6g98w2MMMSNcVxvMccvcVxAcmAxxxxcNbxMcccnxvvccVxAcmAxxcxxxxvxcxvx",
"xvxxbcxcvcccbcxmAAmcxccnxvxxcbxxvxxxbcxmAAmcxccvcbcNxNMbmMb8e0F7D7F0e8bMmbMNxccvvccvbcxmAAmcxcMcxbcvxvcvvvxvbcxmAAmcxccnxvxxbcxc",
"cxxvbbcncxxcbcvvvvxvbxMxcxxvcxvxxcxxxxxvvxccxccbcxcxvcMSVSSS:x98B89x:SSSVSMcbcccvxccvcccNccNvcxcNvxNbbcncxxcbcvvvvxvbxMxcxxvbbcn",
"BBBmmBBvBBBvBBBBBBBBmBmmBBBmmBBBmvBBBmBBBmBmBBmmBvmmJmSbbMSS1VSMSMSV1SSMbbSmmBmmBBmmJmmmmBmBJmBmmBmmmBBvBBBvBBBBBBBBmBmmBBBmmBBv",
"vxxxxNvnnvnvvnnxNnvnNvnnvxxxFDvvvvvxvNnnxNvnnxBnxNvNFN:MVMVSxSVAAAVSxSVMVM:NBNnxNnvnNvnnvxxxxnNnO+nGBGnNNNNNNxNnnnnnNvnnvxxxxNvn",
"LGLLn=X LG GO  LoOOX@@ LLGLLB&ncNNvG ooGG*GGGnN  #L*v.MS-cMMxM7CAC7MxMMc-SM.x. LoOOX@@ LLGLL+  #=* =v; @=. #. &o @X#@@ LLGLLn=X ",
"N LLx.@@n   O #  . G GOGN LLBonNNGn  .%GGGGGGLGGOOG*B.7MSSbSM:ACSCA:MSbSSM7.x.#  . G GOGN LL#X ##iX.v*L &.@#. =$     GOGN LLx.@@",
"GNLLx$ OLLL  G# $.L +$GLGNLLB&LvL nG .o GGoDLLGO  L.B.SMVcSMA8:SxS:8AMScVMS.vo# $.L +$GLGNLL  X%or .v>L%.% .. $#. # +$GLGNLLx$ O",
"+G vx$NOGG  GL%OOoGG . ++G vB&NxGGNG+o.O OoN+LG.G D.B.BSSMVMxDq6q6qDxMVMSSB.vO%OOoGG . ++G v #X@%*+=x;G.%. .. $### @ . ++G vx$NO",
"  +Lx$GG   G G.. % N%@O   +LBOLvGGNLGGoG  GLX NoGGG.B&KFSMSMbcNFAFNcbMSMSFx&vo.. % N%@O   +L@% X%*+.v;X$=%X. .#=G.G.%@O   +Lx$GG",
" LGLv.N G.GO.L##X# N@  G LGLS,NcGLvLO<oG  GGG x +G ;B&LNSSbcSxMMSMMxScbSSvL&xO##X# N@  G LGL  o .. .v;#$.% .G.%.+=+.@  G LGLv.N ",
"OGGNv*G@G   oG.$+%Xn@X@LOGGNB1vGNGvG  &G++ LG.n.Go 3v=LGSSSSxbMSSSMbxSSSSGL=xo.$+%Xn@X@LOGGN  G .%X$v; %.=#.O>&%L*Lo@X@LOGGNv*G@",
" GL x.OG N  #L%% % XGG G GL BoGnvnn GG. XoONGGLOGOO>v=+=nSSyyBBMSMBByySSn=+=xO%% % XGG G GL G #X%l ov> .==..O*..@ LOGG G GL x.OG",
" GGGN*GG L    .%@. OGLLL GGGBoNcGvNGG+X +.GGOGn.GOO.B.% xBx9BS:bSb:SB9xB+ %.v..%@. OGLLL GGGGG#L%zX=B> @%;.%$=X%#   GLLL GGGN*GG",
"<G LN&  @ L#GG..  G GLOD<G LS1NcGvnGGGG   LL.LL Goo*B=4X+vFSASAFSFASASFL+X4=vo..  G GLOD<G LGO. .* .v; %=.o=$#L =  GGLOD<G LN&  ",
"GLLLN* L GG GG.# LG  XLLGLLLBoGnGvvN+GG.G$NGGGLGG$=;B3.GGxnJAAb7M7bAAJn%   3vo.# LG  XLLGLLLL @ a&o.v*@..=$.    . @X XLLGLLLN* L",
"++NNx>oL.LL  G.. $+XLXLL++NNSoGnnNvN+oG.L L GO  +#X;B;oHG.NLxBSSFSSBx ..GHo;vo.. $+XLXLL++NNG@  ;O oB>@o%@#. OG..Go LXLL++NNx>oL",
"LGGGv;.LGGGGN  .X.$+  LLLGGGBonvx.cG GLG+nNG  LLn$ ;B&G+N*o NLxvvvxLo o*  G&B. .X.$+  LLLGGGL..La% .B& #=#..GoNo.G,G  LLLGGGv;.L",
"LLGNx.;.G L GLL%   GoG LLLGNBONvNNNn n GGNn+NLnLNGO.v* $XX  *++X@G @o X#=NG&vOL%   GoG LLLGNL %L=# .B;+@%.oo oN$  L oG LLLGNx.;.",
" GD<v$*.  LL LL.GO GOGLL GD<BoncNcGcOcONGNL GcGGNN .xoL.LLLL#LLL .x#X#LG.G+&vOL.GO GOGLL GD<G##X;#.$B&+$#=.# .Goo G OGLL GD<v$*.",
"G+xGv.*.L$NLXLL=G OGOGLGG+xGB3cZcDnGOGOOGGL LGNGNGG.vOG. LLLLNXG   .N.L  . &vOL=G OGOGLGG+xGGo.+;$$=B*L..#.@o#L% G@XOGLGG+xGv.*.",
"LGNLv&.o   L+GL* @#G.GLLLGNLB&NcnnnGLXL%GG  +GN NoN.BoN #.NLXL L@.L#L.LL .@*voL* @#G.GLLLGNLO #X=$$=B>N@%#  oo o G@X.GLLLGNLv&.o",
"L$++v.@.G$$+ +L;  $$$ LLL$++B&GLnnGLLLN*  $++ n + G.B.LX4@ OOGG#X#L.G$.  ...v$L;  $$$ LLL$++ @@#44#=v;NX@% X## ..G. $ LLL$++v.@.",
"G. Nv.X#+$ oO G;$$G.O GLG. NBoL NvLLnLL=LXX#G#L L  .FoNGGo+  GG #.N+X .O .&&x.G;$$G.O GLG. N  L% *#.v3LGO. $ $X##$$+O GLG. Nv.X#",
"O  nv.G=XX$  oLt@ G@GoGGO  nv.NoNNN N+    G. LL @L#oBONGL LX+N   %#N @..O %&v&Lt@ G@GoGGO  n.+L;L3G.v>L.O&O  # o.# LGoGGO  nv.G=",
"GL Xv.-$$$ GGo+$  L#G GNGL XB&N LNNGNGLGOLL  xGG  XoBONGLoDGLLG X##N #ooG@%;v&+$  L#G GNGL XoGL$+#$&v>N @=#.@. @ $GNG GNGL Xv.-$",
"L GLv=+=G#  L G.G  .   LL GLB&NN+nNGNv+N X++ NNG=+XoBOnOOGGGLLN   .LX#X@ X%>v.G.G  .   LL GL GGL.X%&v3L+X%%ooo.   GG   LL GLv=+=",
" XXXv. * # GGOOO   $L@LL XXXFoGv$vNNGv+vGoLGonLL*N$OBox GGGN Ln  G&@L    L@;v.OO   $L@LL XXX GGn. O>B3L L&. o.    + L@LL XXXv. *",
"   Lv. .  GNG     $OG.LN   LBoLcGGccGvNxG.Nn.NLG.NoOBoLLGbLN@LxLLL$XLX GoG.>v.    $OG.LN   LLN n . >v3+GG= Oo$++$   G.LN   Lv. .",
"L.+ v. %oL nGGo ++# L.L+L.+ BHGLL$NvGNcv$ LN LNNGN..B.OGGLXXXXLLNL +L GON %&voo ++# L.L+L.+ GN L *L=B> GG%  . GG.OGGL.L+L.+ v. %",
"+ L v. . +GN +$ L . L@n++ L S,GGN.NvNncGG OL nLLGG..vo+LL GGOLGLNLLGGG  LL.>v$$ L . L@n++ L OGL  OGov&  L$#Go GG. GOL@n++ L v. .",
"  L B.O. G GoN$+++.GN.LL  L B,nGNoNvvNnGnO LGNNGG L;B.GG   GGGGGvnn LGOOLN$;xO$+++.GN.LL  L OGL N  oB&.oG # G# L$ L.N.LL  L B.O.",
"  GoB. $oG@LGGG   # noGG  GoSocNN-onvNv+vN NNNDDn%n*voG @ GGGGc NNNnLL.OG .&voG   # noGG  GoGoGOGG$$B&.  $ oX. X@ + noGG  GoB. $",
"  L B.OO.NOL GG   . LGGG  L B&BxNv+NBxxNcG +LL Gn*n>BoGG  LLGDG. GDnNG@ L  ;voG   . LGGG  L   n LNG.v.. L  #@ @+L#L LGGG  L B.OO",
"  DOB.G  L LLG G L$.NNLL  DOBwNcDNNLcNvNN  Ln  Lv=N*FoN + GL+nG.  LLNG  nG#&vo G L$.NNLL  DOO GLXL+&v.oGL  . o  X%L+NNLL  DOB.G ",
"  L m.N+ LGL++G+GG  n L   L B;+vxNNNcnDNn XGnOGGn.L.v*  GGGLNvN  OGGLLO XXX&v$G+GG  n L   L  G.L L oB&GG G O GL GOGGn L   L m.N+",
"D--D-DD-DDDZbbb------D--D--D-DDD-D-Dbbb------D--D--D-Db---DDbbb------D--D--DD-----DDbbb------D--D--D-DD-DDDZbbb------D--D--D-DD-",
"bxxxxmbcxbccbvcxcccxvvvxbxxxvccvxbcvbvcxcccxvvvxbxxxcccxvmvxbvcxcccxvvvxbxxxcxbcxcxxbvcxcccxvvvxbxxxxmbcxbccbvcxcccxvvvxbxxxxmbc",
"xxcbMvbvxxcccxxcbvcxxbxxxxcbccvcxcxvcxxcbvcxxbxxxxcbcvcxxxcbcxxcbvcxxbxxxxcbncbcxbcxcxxcbvcxxbxxxxcbMvbvxxcccxxcbvcxxbxxxxcbMvbv",
"cccxccccxvcxxxvM:1cMvccvcccxxcccccxxxxvM:1cMvccvcccxbbxcxxxcxxvM:1cMvccvcccxncxxvxxvxxvM:1cMvccvcccxccccxvcxxxvM:1cMvccvcccxcccc",
"NcVxNxccvxcxvxv:ccPMvxxxNcVxvMccvccvvxv:ccPMvxxxNcVxnxvvccNvvxv:ccPMvxxxNcVxxxxvxcbcvxv:ccPMvxxxNcVxNxccvxcxvxv:ccPMvxxxNcVxNxcc",
"NxccbxccvxccvvZvvcxZMxxxNxccvvccvxccvvZvvcxZMxxxNxccvvvxvcxvvvZvvcxZMxxxNxccnxvxxcbxvvZvvcxZMxxxNxccbxccvxccvvZvvcxZMxxxNxccbxcc",
"cbcxvcbvxcxxxbvxZbcxbxxncbcxbcxvxNvcxbvxZbcxbxxncbcxxcbMvbvxxbvxZbcxbxxncbcxxcbccvcxxbvxZbcxbxxncbcxccvcvcxxxbvxZbcxbxxncbcxvcbv",
"cxxvxxcvxvccMxNmPZmccMcncxxvxxvvcMcvMxNmPZmccMcncxxvxcbccccxMxNmPZmccMcncxxvccxxccccMxNmPZmccMcncxxvMbcbbxcxMxNmPZmccMcncxxvxxcv",
"xxvxxNvvvxxVmVxAcmAxbmxxxxvxcbcxcccxmVxAcmAxbmxxxxvxccxNxccvmVxAcmAxbmxxxxvxcVxvMccvmVxAcmAxbmxxxxvxcccnxvvcmVxAcmAxbmxxxxvxxNvv",
"xvxxxxvxxcccAmbmAAmbmScnxvxxcbxxvxxxAmbmAAmbmScnxvxxxccbxccvAmbmAAmbmScnxvxxxccvvccvAmbmAAmbmScnxvxxxvcvvvxvAmbmAAmbmScnxvxxxxvx",
"xvxvcxcxxxvxJAmbcxbmAvccxvxvxvxNxcvxJAmbcxbmAvccxvxvxcNNccxVJAmbcxbmAvccxvxvMbcvxxncJAmbcxbmAvccxvxvcxcxxxvxJAmbNxbmAvccxvxvcxcx",
"xxcMcvcxxcvcvJAcxcDAJxvcxxcMvxcVvcbcvJAcxcDAJxvcxxcMxcbcxcxcvJAcxcDAJxvcxxcMcxccxcccvJAcxcDAJxvcxxcMcvcxxcvcvJAcNcDAJxvcxxcMcvcx",
"xcxccxvxxvvxxvAbxxDAvvvcxcxccVxvxcxvxvAbxxDAvvvcxcxcxNbccccbxvAbxxDAvvvcxcxcMMccvxxcxvAbxxDAvvvcxcxccxvxxvvxxvAbxxDAvvvcxcxccxvx",
"vxvxbcxcvcvvVvmbxcDmvxcxvxvxxxcNvxccVvmbxcDmvxcxvxvxxNxcccccVvmbxcDmvxcxvxvxcvccvxccVvmbxcDmvxcxvxvxbcxcvcvvVvmbxcDmvxcxvxvxbcxc",
"cxxvbbcncxxcbvmbvvbmvxMxcxxvcxvxxcxxbvmbvvbmvxMxcxxvvcxcNccNbvmbvvbmvxMxcxxvbcccvxccbvmbvvbmvxMxcxxvbbcncxxcbvmbvvbmvxMxcxxvbbcn",
"BBBmmBBvBBBvBBAmmmmBmBmmBBBmmBBBmvBBBBAmmmmBmBmmBBBmJmBmmBmBBBAmmmmBmBmmBBBmmBmmBBmmBBAmmmmBmBmmBBBmmBBvBBBvBBAmmmmBmBmmBBBmmBBv"
};
