/* XPM */
static char *ad60l_z87iv[] = {
/* columns rows colors chars-per-pixel */
"63 69 17 1 ",
"  c None",
". c #2C2C2C",
"X c gray22",
"o c #484848",
"O c gray33",
"+ c #646464",
"@ c gray44",
"# c #7C7C7C",
"$ c gray55",
"% c #989898",
"& c gray66",
"* c #B4B4B4",
"= c #C0C0C0",
"- c #D0D0D0",
"; c gainsboro",
": c #ECECEC",
"> c gray99",
/* pixels */
"                                                               ",
"                                                               ",
"                                                               ",
"                                                               ",
"                                                               ",
"                                                               ",
"                                                               ",
"                                                               ",
"                                                               ",
"                                                               ",
"                                                               ",
"                                                               ",
"                                                               ",
"                                                               ",
"                                                               ",
"                                                               ",
"                                                               ",
"                                                               ",
"                                                               ",
"                                                               ",
"                                                               ",
"                                                               ",
"                                                               ",
"                                                               ",
"                                                               ",
"                                                               ",
"                                                               ",
"                                                               ",
"                                                               ",
"                                                               ",
"                                                               ",
"                                                               ",
"                                                               ",
"                                                               ",
"                                                               ",
"                                                               ",
"                                                               ",
"                                                               ",
"                                                               ",
"                                                               ",
"                                                               ",
"                                                               ",
"                                                               ",
"                                                               ",
"                                                               ",
"                                                               ",
"                                                               ",
"                                                               ",
"                                                               ",
"                                                               ",
"                                                               ",
"                                                               ",
"                                                               ",
"                                                               ",
"                       ****                                    ",
"                      *;;***  ;         -&-                    ",
"                --%  *;;=%%&*;&$;$$    -----    ;;             ",
"                -o%% *==###+;;;;==$$  -&-&-&&&  ;;;            ",
"             && %@%;;;=%+++O@=;&$@o$$&*&+++&&$$ ;==%           ",
"          && &&&;&;>>>>=&+OO@;=$o..$&=-%###$$$#-= %            ",
"              &;&%+$;=;>:*:>$=$o-----&=%#o####-=    &-----&    ",
"         ;;    ;&>#X=&=;:+:;&$$->>;;;-.@.+OOO-=%** &-&@-@&%&   ",
"  --  &-;&&&  ;&O>>>;#=&-+-&&&@=>;;;;=.oo&#O-=&@%%*&&@@@&-%& & ",
"  -&&&-&&o@&&-&#O;=##O###OO@@@X=##&##=@o&-;;*&O#%%%@@&&@@-%  & ",
"         $$$$;&O$%%#XOOOOOX-@X=;X+XOX;=.+&--=X##;&@&&&&@---=*$ ",
"      &---&@;&o    OX@XO---*#O%;;>$=;;%.o+&&#XX#%&;----%*===$$ ",
"     &  -  ;o&o >-*@O%O=;;@%OOO@-;;;-@OX@%-;-%OO@%&&%%%%       ",
"       &   &&&o >-*=*%%&$o*@...$$===$$X@$&--$%OOO#########     ",
"                       =;;*+@ @*=;;;*%XXXO$$OO@@ OOOOOO        "
};
