/* XPM */
static char *ag1j7_xpakn[] = {
/* columns rows colors chars-per-pixel */
"140 40 24 1 ",
"  c None",
". c black",
"X c #202020",
"o c #000070",
"O c #00007C",
"+ c #484848",
"@ c gray33",
"# c #646464",
"$ c gray44",
"% c #7C7C7C",
"& c #FC5C5C",
"* c #000088",
"= c #000098",
"- c #0000A4",
"; c #0000B0",
": c #0000BC",
"> c #0000FC",
", c gray55",
"< c #989898",
"1 c #B4B4B4",
"2 c #FC9C9C",
"3 c #FCB8B8",
"4 c #D0D0D0",
"5 c gainsboro",
/* pixels */
"                                                                                                                                            ",
"                                                                                                                                            ",
"                                                                                                                                            ",
"                                                                                                                                            ",
"                                                                                                                                            ",
"                                                                                                                                            ",
"                                                                                                                                            ",
"                                                                                                                                            ",
"                                                                                                                                            ",
"                                                                                                                                            ",
"                                                                                                                                            ",
"                                                                                                                                            ",
"                                                                                                                                            ",
"                                                                                                                                            ",
"                                                                                                                                            ",
"                                                                                                                                            ",
"                                                                                                                                            ",
"                                                                                                                                            ",
"                                                                                                                                            ",
"                                                                                                                                            ",
"                                                                                                                                            ",
"                                                                                                                                            ",
"                                                                                                                                            ",
"                                                                                                                                            ",
"                                                                                                                                            ",
"                                                                                                                                            ",
"                                                                                                                                            ",
"                                                                                                                                            ",
"                                                                                                                                            ",
"                                                                                                                                            ",
"                                                    ....4444444444444444444............                                                     ",
"                                                    ...444444443&&&344444444...........                                                     ",
"                                                    ..4444442&&&&&&&&&2444444..........                                                     ",
"                                                    .4444442&&&&&&&&&&&2444444.........                                                     ",
"                                                    44444444442&&&&&24444444444........                                                     ",
"                                                    555555555555555555555555551........                                                     ",
"                                                    11111111111@XX+$1111111111,####....                                                     ",
"                                                    <<<<<<<<<<<<%$$$<<<<<<<<<<$@@####..                                                     ",
"                                                    >:::::;;;;;--------------=*++@#####                                                     ",
"                                                    ;***********OOOOOOOoooooooo+++@####                                                     "
};
